<svg width="24" height="24" viewBox="0 0 24 24" fill="none" xmlns="http://www.w3.org/2000/svg">
<g clip-path="url(#clip0_1164_38450)">
<path d="M5.45456 20.9993V11.7293L2.57878 9.09917L0 7.63965V19.3634C0 20.2685 0.733594 20.9993 1.63641 20.9993H5.45456Z" fill="#4285F4"/>
<path d="M18.5449 20.9992H22.3631C23.2686 20.9992 23.9995 20.2657 23.9995 19.3633V7.63965L21.0786 9.31136L18.5449 11.7292V20.9992Z" fill="#34A853"/>
<path d="M5.45381 11.7291L5.0625 8.10704L5.45381 4.64038L11.9993 9.54801L18.5447 4.64038L18.9824 7.91988L18.5447 11.7291L11.9993 16.6367L5.45381 11.7291Z" fill="#EA4335"/>
<path d="M18.5449 4.64047V11.7292L23.9995 7.63956V5.45838C23.9995 3.4354 21.6895 2.28216 20.0723 3.49538L18.5449 4.64047Z" fill="#FBBC04"/>
<path d="M0 7.6396L2.50866 9.52059L5.45456 11.7292V4.64051L3.92719 3.49543C2.30719 2.28211 0 3.43544 0 5.45833V7.6395V7.6396Z" fill="#C5221F"/>
</g>
<defs>
<clipPath id="clip0_1164_38450">
<rect width="24" height="18.0882" fill="white" transform="translate(0 3)"/>
</clipPath>
</defs>
</svg>
