<svg width="22" height="22" viewBox="0 0 22 22" fill="none" xmlns="http://www.w3.org/2000/svg">
<path d="M10.9996 5.75415C9.60837 5.75415 8.2741 6.30682 7.29034 7.29058C6.30658 8.27435 5.75391 9.60862 5.75391 10.9999C5.75391 12.3911 6.30658 13.7254 7.29034 14.7091C8.2741 15.6929 9.60837 16.2456 10.9996 16.2456C12.3909 16.2456 13.7251 15.6929 14.7089 14.7091C15.6927 13.7254 16.2453 12.3911 16.2453 10.9999C16.2453 9.60862 15.6927 8.27435 14.7089 7.29058C13.7251 6.30682 12.3909 5.75415 10.9996 5.75415ZM10.9996 14.4066C10.0958 14.4066 9.22898 14.0476 8.58987 13.4085C7.95077 12.7694 7.59172 11.9026 7.59172 10.9987C7.59172 10.0949 7.95077 9.22809 8.58987 8.58898C9.22898 7.94988 10.0958 7.59083 10.9996 7.59083C11.9035 7.59083 12.7703 7.94988 13.4094 8.58898C14.0485 9.22809 14.4075 10.0949 14.4075 10.9987C14.4075 11.9026 14.0485 12.7694 13.4094 13.4085C12.7703 14.0476 11.9035 14.4066 10.9996 14.4066Z" fill="#FEFEFE"/>
<path d="M16.8632 6.3714C17.5449 6.3714 18.0975 5.81879 18.0975 5.13712C18.0975 4.45544 17.5449 3.90283 16.8632 3.90283C16.1815 3.90283 15.6289 4.45544 15.6289 5.13712C15.6289 5.81879 16.1815 6.3714 16.8632 6.3714Z" fill="#FEFEFE"/>
<path d="M21.2271 3.91971C20.9494 3.20376 20.5251 2.55358 19.9812 2.0108C19.4374 1.46802 18.786 1.04459 18.0689 0.767616C17.2297 0.453073 16.3431 0.282994 15.4468 0.264622C14.2918 0.214322 13.9259 0.199951 10.9968 0.199951C8.06772 0.199951 7.69229 0.199951 6.5468 0.264622C5.65126 0.282055 4.7653 0.452169 3.92716 0.767616C3.2098 1.04426 2.55829 1.46758 2.01441 2.0104C1.47054 2.55323 1.04632 3.20357 0.768965 3.91971C0.453871 4.75757 0.283919 5.64287 0.266389 6.53768C0.214812 7.68977 0.199219 8.05504 0.199219 10.9808C0.199219 13.9053 0.199219 14.2778 0.266389 15.4239C0.284381 16.3197 0.453506 17.2035 0.768965 18.0431C1.04709 18.7589 1.47173 19.409 2.01573 19.9518C2.55974 20.4945 3.21116 20.918 3.92836 21.1952C4.76491 21.5223 5.65124 21.7046 6.5492 21.7341C7.70428 21.7844 8.07012 21.8 10.9992 21.8C13.9283 21.8 14.3037 21.7999 15.4492 21.7341C16.3454 21.7159 17.2319 21.5462 18.0713 21.2323C18.7883 20.9547 19.4394 20.5309 19.9832 19.9879C20.527 19.445 20.9514 18.7949 21.2295 18.079C21.5449 17.2407 21.7141 16.3568 21.732 15.461C21.7836 14.3089 21.7992 13.9437 21.7992 11.0179C21.7992 8.09217 21.7992 7.72091 21.732 6.5748C21.7181 5.66734 21.5472 4.76911 21.2271 3.91971V3.91971ZM19.7661 15.3353C19.7584 16.0255 19.6322 16.7092 19.3931 17.3568C19.213 17.8225 18.9372 18.2455 18.5835 18.5984C18.2299 18.9513 17.8061 19.2264 17.3396 19.4059C16.6982 19.6436 16.0206 19.7696 15.3365 19.7784C14.197 19.8311 13.8755 19.8443 10.9536 19.8443C8.02934 19.8443 7.73067 19.8443 6.56959 19.7784C5.8858 19.77 5.20858 19.644 4.56768 19.4059C4.09951 19.2275 3.67408 18.9529 3.3189 18.5999C2.96372 18.2469 2.68672 17.8234 2.50579 17.3568C2.27003 16.7162 2.14393 16.0405 2.13276 15.358C2.08118 14.2203 2.06919 13.8994 2.06919 10.982C2.06919 8.06342 2.06919 7.76522 2.13276 6.60474C2.14051 5.91495 2.26669 5.23159 2.50579 4.58438C2.87163 3.63947 3.6213 2.89576 4.56768 2.53408C5.2089 2.29712 5.88592 2.17117 6.56959 2.16163C7.71028 2.11013 8.03054 2.09576 10.9536 2.09576C13.8767 2.09576 14.1766 2.09576 15.3365 2.16163C16.0207 2.16985 16.6983 2.29584 17.3396 2.53408C17.8061 2.71405 18.2298 2.98941 18.5834 3.3425C18.937 3.69559 19.2128 4.1186 19.3931 4.58438C19.6288 5.22504 19.755 5.90074 19.7661 6.58318C19.8177 7.72211 19.8309 8.04187 19.8309 10.9604C19.8309 13.8778 19.8309 14.1916 19.7793 15.3365H19.7661V15.3353Z" fill="#FEFEFE"/>
</svg>
