<svg width="497" height="37" viewBox="0 0 497 37" fill="none" xmlns="http://www.w3.org/2000/svg">
<path fill-rule="evenodd" clip-rule="evenodd" d="M8.75952 11.9019V26.4523C8.75952 26.8472 8.71517 27.0443 8.84791 27.2413C8.914 27.3726 9.04673 27.4384 9.15744 27.4384C9.31221 27.4384 9.44495 27.3726 9.53306 27.2192C9.6658 27.0222 9.64377 26.8248 9.64377 26.4086V11.9019H10.3292V26.7375C10.3292 27.7455 9.9533 28.2493 9.15744 28.2493C8.8256 28.2493 8.53838 28.1396 8.31725 27.8988C8.09611 27.6581 7.9854 27.2853 7.9854 26.7591V11.9019H8.75952ZM15.1713 11.9019L16.299 21.2807V11.9019H16.8073V28.1617H16.0778L14.9722 18.169V28.1617H14.3754V11.9019H15.1713ZM22.7774 12.603H21.6937V19.2209H22.7774V19.7905H21.6937V27.4823H22.9321V28.1617H20.7211V11.9019H22.7774V12.603ZM5.61987 9.60102H44.2463V10.9597H5.61987V9.60102ZM5.61987 29.3667H44.2463V30.7256H5.61987V29.3667ZM3.14362 32.1064H46.3689V33.4648H3.14362V32.1064ZM0.95459 34.7577H48.5357V36.1382L0.95459 36.1386V34.7577ZM5.53147 8.06713V6.62085L24.745 1.05489L44.1573 6.53324V7.97952L24.5682 2.69822L5.53147 8.06713Z" fill="#2B5D9C"/>
<path fill-rule="evenodd" clip-rule="evenodd" d="M9.93112 8.06731L24.9439 3.79425L39.7577 8.06731H35.7555L24.8996 5.15292L14.0657 7.9797L9.93112 8.06731ZM28.2824 16.5916H29.1229V13.4359C29.1229 13.4359 29.1006 12.5156 28.8792 12.2525C28.6586 12.0115 28.3931 11.7923 27.8181 11.7923C27.2654 11.8144 27.1327 11.9675 26.9336 12.2088C26.7124 12.4498 26.624 12.866 26.624 13.3044C26.624 13.7427 26.6464 15.6931 26.7124 16.3503C26.7788 16.9857 27.3979 19.5718 27.7517 20.8204C28.0836 22.0912 28.2384 22.7272 28.2607 23.0776C28.2824 23.4502 28.3265 24.6997 28.2824 25.3127C28.2607 25.9262 28.2824 26.7814 28.2824 26.7814C28.2824 26.7814 28.3265 27.4607 27.9288 27.4607C27.5086 27.4607 27.5529 26.7814 27.5529 26.7814V22.9242H26.7124V26.759C26.7124 26.759 26.4919 28.1616 27.8181 28.1616C29.1669 28.1616 29.1669 26.9124 29.1669 26.9124V23.4068C29.1669 23.4068 29.1006 22.2455 28.8792 21.4343C28.6586 20.6458 27.9506 18.1255 27.7958 17.4243C27.6193 16.6792 27.5526 15.5834 27.5526 14.5976C27.5526 13.6114 27.575 12.9979 27.575 12.9979C27.575 12.9979 27.5526 12.5377 27.9285 12.5377C28.2821 12.5377 28.2604 13.02 28.2604 13.02L28.2824 16.5916ZM34.7162 16.6353H35.446V12.8442C35.446 12.2528 35.1147 11.661 34.2959 11.661C33.5444 11.661 33.1025 12.2088 33.1025 12.866V27.1103C33.1025 27.7454 33.5444 28.2931 34.2959 28.2931C35.1144 28.2931 35.446 27.7232 35.446 27.1318V22.859H34.7162V27.1103C34.7162 27.3289 34.7385 27.592 34.2959 27.592C33.8317 27.592 33.8763 27.197 33.8763 27.0442V12.9103C33.8763 12.7569 33.8317 12.3625 34.2959 12.3625C34.7385 12.3625 34.7162 12.6472 34.7162 12.8663V16.6353ZM40.8187 11.661C40.0672 11.661 39.5365 12.2088 39.5365 12.866V27.1103C39.5365 27.7454 40.0672 28.2931 40.8187 28.2931C41.6366 28.2931 42.0568 27.7232 42.0568 27.1318V12.8442C42.0571 12.2528 41.6369 11.661 40.8187 11.661ZM41.3273 27.1103C41.3273 27.3289 41.2615 27.592 40.819 27.592C40.3547 27.592 40.3106 27.197 40.3106 27.0442V12.9103C40.3106 12.7569 40.3547 12.3625 40.819 12.3625C41.2615 12.3625 41.3273 12.6472 41.3273 12.8663V27.1103Z" fill="#2B5D9C"/>
<path d="M240.49 1.76647H224.137V17.9829H240.49V1.76647Z" fill="#1B5EAC"/>
<path d="M228.272 4.4261V10.7982C228.272 14.1781 229.967 15.434 232.202 15.434C234.567 15.434 236.337 14.0858 236.337 10.7612V4.4261H234.902V10.8536C234.902 13.2362 233.841 14.2889 232.239 14.2889C230.786 14.2889 229.687 13.2546 229.687 10.8536V4.4261H228.272Z" fill="#FEFEFE"/>
<path d="M257.849 1.76647H241.496V17.9829H257.849V1.76647Z" fill="#1B5EAC"/>
<path d="M246.897 15.2863V10.6504C246.897 8.85883 246.879 7.54748 246.804 6.18072L246.86 6.16226C247.4 7.32585 248.127 8.56332 248.89 9.78232L252.355 15.2863H253.789V4.46304H252.466V9.00659C252.466 10.6873 252.504 11.9987 252.634 13.4393L252.56 13.4578C252.057 12.3311 251.405 11.2045 250.623 9.93008L247.14 4.44457H245.575V15.2678H246.897V15.2863Z" fill="#FEFEFE"/>
<path d="M257.849 18.9802H241.496V35.1966H257.849V18.9802Z" fill="#1B5EAC"/>
<path d="M251.982 24.8721C251.982 23.4314 250.958 22.7296 249.412 22.7296C248.797 22.7296 248.332 22.785 248.089 22.8404V27.0515C248.387 27.1254 248.797 27.1623 249.263 27.1623C250.958 27.1808 251.982 26.3312 251.982 24.8721ZM253.398 24.7243C253.398 25.7032 253.1 26.4789 252.541 27.033C251.796 27.8088 250.585 28.2151 249.207 28.2151C248.779 28.2151 248.387 28.1966 248.071 28.1227V32.4816H246.655V21.7876C247.344 21.6583 248.22 21.566 249.356 21.566C250.753 21.566 251.777 21.88 252.411 22.471C253.044 22.9697 253.398 23.7639 253.398 24.7243Z" fill="#FEFEFE"/>
<path d="M240.472 18.9987H224.118V35.2151H240.472V18.9987Z" fill="#1B5EAC"/>
<path d="M235.685 26.8299C235.703 24.2441 234.232 22.6557 231.252 22.6557C230.525 22.6557 229.967 22.7111 229.594 22.8035V31.3734C229.948 31.4288 230.47 31.4288 231.028 31.4288C234.046 31.4473 235.685 29.7665 235.685 26.8299ZM237.175 26.7929C237.175 28.566 236.616 30.0066 235.61 31.004C234.567 32.0198 232.891 32.5555 230.768 32.5555C229.743 32.5555 228.924 32.5185 228.197 32.4262V21.7692C229.073 21.6399 230.097 21.5475 231.215 21.5475C233.245 21.5475 234.679 21.9908 235.648 22.8773C236.597 23.7639 237.175 25.0383 237.175 26.7929Z" fill="#FEFEFE"/>
<path d="M223.243 1.76647H189.493V35.2336H223.243V1.76647Z" fill="#1B5EAC"/>
<path d="M214.954 25.6109C214.191 25.814 213.353 25.8879 212.608 26.1465C213.874 25.0568 213.818 23.3945 214.656 22.1016C214.936 21.7322 215.159 21.3628 215.457 21.0119C214.936 22.0462 215.159 23.376 214.563 24.3734C214.34 24.7612 214.004 25.1491 213.651 25.4631C213.762 25.4631 213.874 25.3523 213.967 25.2969C214.936 24.3364 216.202 24.0779 217.245 23.3021C217.655 22.9697 218.046 22.5449 218.232 22.0647C218.046 23.6531 216.444 25.1306 214.954 25.6109Z" fill="#FEFEFE"/>
<path d="M218.437 19.2019C217.972 19.8668 217.394 20.4947 216.966 21.1597C217.022 20.624 217.078 19.9591 216.873 19.4604C216.5 18.3707 216.184 17.2625 216.091 16.062L216.109 15.6003C216.389 16.8193 217.599 17.6689 217.525 19.0356C217.543 19.3681 217.45 19.6451 217.394 19.9407L217.413 19.9591L217.469 19.9037C217.655 19.2388 217.73 18.5185 218.009 17.8905C218.4 16.9855 218.903 16.062 218.698 14.9723C219.276 16.2652 219.089 17.9829 218.437 19.2019Z" fill="#FEFEFE"/>
<path d="M217.692 12.2573C218.493 13.3285 218.661 15.0277 218.083 16.2652C217.86 16.7823 217.711 17.3364 217.636 17.909C217.599 17.8166 217.581 17.6689 217.543 17.5581C217.227 16.3575 216.072 15.5079 215.606 14.3628C215.457 13.9934 215.327 13.6055 215.252 13.1992C215.755 14.1227 217.003 14.6029 217.338 15.6187C217.469 15.8773 217.469 16.1913 217.562 16.4684C217.581 16.4684 217.599 16.4499 217.599 16.4314C217.45 15.3786 217.487 14.2889 217.636 13.2546C217.636 12.7005 217.581 12.1464 217.264 11.7216C217.45 11.8509 217.543 12.0726 217.692 12.2573Z" fill="#FEFEFE"/>
<path d="M217.115 12.0356C217.32 12.9776 217.022 13.8826 217.208 14.8245C216.687 13.8272 215.606 13.347 214.843 12.5528C214.414 12.0726 214.209 11.5 214.116 10.872C214.545 11.9063 215.699 12.128 216.37 12.996C216.593 13.1992 216.668 13.4763 216.817 13.6979L216.836 13.6794C216.444 12.8668 216.314 11.9617 216.053 11.0937C215.923 10.7243 215.644 10.3549 215.29 10.1148C216.184 10.3179 216.947 11.223 217.115 12.0356Z" fill="#FEFEFE"/>
<path d="M214.787 9.89314C215.439 10.4842 215.737 11.2414 215.942 12.0172L216.053 12.2757C215.103 11.5924 214.228 10.6689 213.613 9.70844L212.868 8.95118C213.52 9.22823 214.228 9.39446 214.787 9.89314Z" fill="#FEFEFE"/>
<path d="M199.663 9.08047C198.992 9.65303 198.545 10.3918 198.061 11.0567C197.614 11.5924 197.055 11.9617 196.552 12.4235C196.813 11.8694 196.832 11.2045 197.204 10.7058C197.763 9.76385 198.769 9.43139 199.663 9.08047Z" fill="#FEFEFE"/>
<path d="M196.049 11.0752C196.366 10.6873 196.776 10.4103 197.241 10.281C196.347 10.8905 196.403 11.9802 196.124 12.8852C196.031 13.2177 195.882 13.5317 195.807 13.8641L195.826 13.8826C195.975 13.4947 196.236 13.1253 196.552 12.8114C197.186 12.2388 198.117 11.8694 198.433 11.0198C198.415 12.2018 197.409 13.1438 196.459 13.8087C196.068 14.1596 195.677 14.5475 195.472 14.9908C195.453 14.6953 195.509 14.3813 195.491 14.0673C195.397 13.033 195.304 11.8509 196.049 11.0752Z" fill="#FEFEFE"/>
<path d="M194.243 14.6399C194.224 13.5871 194.652 12.719 195.286 11.9433C195.304 11.9433 195.323 11.9248 195.342 11.9248C194.652 12.9591 195.23 14.252 195.193 15.434L195.099 16.6346C195.118 16.6346 195.118 16.6715 195.137 16.6715C195.174 16.5422 195.193 16.3945 195.211 16.2652C195.379 15.3048 196.217 14.6029 196.962 13.938C197.111 13.7718 197.26 13.5871 197.335 13.3839C197.279 13.8641 197.13 14.3443 196.925 14.8061C196.347 15.9143 195.286 16.8377 195.081 18.1122C195.006 16.8562 194.168 15.9327 194.243 14.6399Z" fill="#FEFEFE"/>
<path d="M193.74 16.1359C193.814 15.8034 193.87 15.471 194.019 15.157C193.74 16.5422 194.69 17.5581 195.006 18.7586C195.137 19.2019 195.174 19.7005 195.36 20.1253C195.379 20.1253 195.397 20.1253 195.397 20.1069C194.932 18.814 195.602 17.6319 196.273 16.6346C196.44 16.3575 196.534 16.062 196.608 15.748C196.683 16.3206 196.534 17.004 196.44 17.595C196.273 18.3707 196.031 19.091 195.826 19.8298C195.695 20.2916 195.714 20.8272 195.789 21.3074L195.714 21.252C195.23 20.347 194.243 19.6636 193.963 18.6662C193.721 17.8905 193.572 16.9855 193.74 16.1359Z" fill="#FEFEFE"/>
<path d="M193.684 18.8509C193.796 20.3285 195.397 21.1042 196.142 22.3232C196.31 22.5818 196.478 22.8404 196.701 23.062C196.664 22.9143 196.515 22.7665 196.459 22.6188C196.198 22.1016 196.105 21.4921 196.161 20.8826C196.236 20.1254 196.552 19.4235 196.422 18.6293C197.074 20.033 196.869 21.7692 197.241 23.2837C197.335 23.6161 197.521 23.9116 197.651 24.2256C196.31 23.3206 194.485 22.4525 193.889 20.8087C193.665 20.2177 193.628 19.5159 193.684 18.8509Z" fill="#FEFEFE"/>
<path d="M194.485 22.2494C195.23 23.9301 197.111 24.0594 198.359 25.0937C198.582 25.2969 198.825 25.4631 199.085 25.5924L199.104 25.5739C198.825 25.3153 198.489 25.0198 198.284 24.6874C197.558 23.6715 197.8 22.2494 197.26 21.1597C197.763 21.7507 198.21 22.3602 198.508 23.0436C198.955 24.1333 199.123 25.3892 200.166 26.2019C199.048 25.8325 197.726 25.9433 196.738 25.2599C195.658 24.595 194.69 23.4684 194.485 22.2494Z" fill="#FEFEFE"/>
<path d="M196.403 25.3707C197.595 26.719 199.551 26.2758 201.153 26.6267C201.376 26.6636 201.581 26.756 201.823 26.719C201.637 26.5897 201.376 26.6082 201.171 26.4974C199.923 26.0541 199.737 24.7243 199.048 23.8193C199.923 24.3919 200.65 25.1676 201.451 25.9064C202.028 26.4051 202.717 26.6452 203.444 26.7929C203.276 26.8483 203.034 26.8299 202.848 26.8853C201.544 27.1992 200.072 27.7349 198.694 27.2547C197.8 26.9591 196.869 26.2573 196.403 25.3707Z" fill="#FEFEFE"/>
<path d="M212.663 28.5291C211.322 29.0278 209.907 28.5106 208.845 27.7164C208.417 27.4393 208.044 27.0515 207.485 27.0884C207.281 27.0884 207.094 27.0884 206.927 27.1438C207.951 27.6241 208.901 28.2705 209.776 29.1016C209.627 29.2679 209.441 29.4156 209.255 29.5634C208.417 28.6584 207.486 27.8087 206.442 27.3101C206.238 27.3285 206.051 27.4578 205.865 27.5502C205.027 28.0858 204.189 28.7692 203.555 29.6003L203.015 29.157C203.872 28.289 204.841 27.6241 205.884 27.1438C204.859 26.8299 204.189 27.6795 203.406 28.1043C202.494 28.7322 201.19 29.0278 200.091 28.6029C199.495 28.3813 198.936 28.0489 198.508 27.5317C199.365 28.1227 200.65 28.1781 201.637 27.7903C202.959 27.2177 204.319 26.4974 205.902 26.8483C206.144 26.8483 206.387 27.1069 206.629 26.8853C207.802 26.5897 209.143 26.7929 210.168 27.3285L211.211 27.7349C212.179 28.0858 213.446 27.9934 214.265 27.4024C213.855 27.9196 213.278 28.3074 212.663 28.5291Z" fill="#FEFEFE"/>
<path d="M214.116 27.1438C212.608 27.7164 211.08 27.0146 209.627 26.7744L209.348 26.7375C210.037 26.5897 210.708 26.3681 211.267 25.8879C212.086 25.1122 212.812 24.318 213.706 23.7085C213.036 24.5581 212.961 25.7771 211.863 26.3312C211.583 26.5159 211.248 26.5343 210.95 26.6821C211.36 26.6821 211.732 26.5528 212.123 26.5159C213.613 26.2758 215.308 26.5159 216.351 25.2599C215.96 26.0911 214.992 26.8299 214.116 27.1438Z" fill="#FEFEFE"/>
<path d="M216.873 22.9143C216.277 23.3021 215.662 23.6715 215.085 24.0963V24.0409C215.96 22.5818 215.532 20.5871 216.072 18.9987L216.277 18.4631C216.165 19.4604 216.593 20.3101 216.575 21.3074C216.538 21.9169 216.351 22.4525 216.035 22.9327H216.091C216.519 22.3787 216.854 21.7692 217.357 21.2335C218.139 20.4763 218.94 19.719 219.033 18.6847C219.294 20.4024 218.326 21.9354 216.873 22.9143Z" fill="#FEFEFE"/>
<path d="M214.917 17.5027C214.824 19.5897 214.042 21.3998 212.663 22.9512L212.626 23.0251C212.347 22.7111 211.974 22.3232 211.62 22.0462C211.825 21.9169 211.993 21.6583 212.142 21.4736C212.999 20.31 213.502 18.9987 213.576 17.5211L213.539 17.3918L213.613 17.4472H214.899L214.973 17.4103L214.917 17.5027ZM206.666 25.6663L206.573 25.7217C206.61 25.2599 206.61 24.7797 206.573 24.318C206.796 24.3918 207.038 24.318 207.281 24.318L207.97 24.1887C208.305 24.2626 208.547 24.7982 208.938 24.4657C209.069 24.318 209.292 24.318 209.385 24.1148C209.609 24.0409 209.665 23.8193 209.814 23.6715C209.963 23.2467 210.447 23.1913 210.726 22.8958C210.931 22.7111 211.211 22.5449 211.341 22.3048L211.36 22.4156L212.31 23.3206C210.708 24.7612 208.827 25.5739 206.666 25.6663ZM206.647 22.8219C206.815 22.8958 207.094 22.748 207.187 22.9327C207.132 23.0436 207.057 23.1359 207.094 23.2467C207.169 23.413 207.262 23.6346 207.467 23.6531C207.523 23.7269 207.597 23.7454 207.672 23.7639C207.318 23.8193 206.927 23.8008 206.591 23.9116C206.629 23.5422 206.591 23.1728 206.591 22.8035L206.517 22.7111C206.573 22.7296 206.61 22.785 206.647 22.8219ZM206.312 20.5502C206.219 20.5686 206.126 20.5502 206.051 20.5132C206.014 20.5132 206.033 20.4578 206.014 20.4393C206.144 20.4393 206.2 20.2916 206.349 20.31C206.424 20.2362 206.442 20.1253 206.554 20.0699C206.517 19.9591 206.666 20.033 206.685 19.9591C206.722 19.9222 206.778 19.8852 206.834 19.9222C206.927 20.0515 207.113 19.9961 207.206 20.1438C207.243 20.1623 207.262 20.1069 207.262 20.0884V20.033C207.411 20.0145 207.486 20.2177 207.635 20.0884C207.672 20.0515 207.653 19.9961 207.635 19.9591C207.616 19.9591 207.597 19.9407 207.597 19.9222C207.709 19.8668 207.765 20.0699 207.895 20.0145C208.007 19.9222 208.063 19.8298 208.212 19.8298L208.249 19.8668C208.268 20.1253 208.044 20.2916 207.839 20.4209C207.709 20.4763 207.467 20.4578 207.485 20.661C207.336 20.7903 207.206 20.5871 207.02 20.6425C206.927 20.6056 207.02 20.4763 206.889 20.4578C206.685 20.5132 206.461 20.347 206.312 20.5502ZM205.232 25.6108C203.425 25.3707 201.842 24.595 200.445 23.3945L201.376 22.471L201.395 22.4156C202.68 23.6346 204.226 24.2626 205.977 24.3734L206.107 24.3364L206.07 24.4103V25.6108L206.144 25.7217C205.846 25.6293 205.511 25.6663 205.232 25.6108ZM198.899 21.3813C198.247 20.1808 197.875 18.8879 197.8 17.4657H199.048L199.178 17.4288C199.16 17.5027 199.16 17.5765 199.16 17.6873V17.6689C199.123 17.6873 199.178 17.7058 199.178 17.7428C199.197 18.223 199.29 18.6662 199.402 19.091L199.458 19.1834C199.365 19.091 199.327 18.9987 199.253 18.9063C199.141 18.9248 199.029 18.9433 198.955 19.0172C199.011 19.1465 198.88 19.1095 198.825 19.1465C198.806 19.1095 198.769 19.0726 198.731 19.0541C198.638 19.0541 198.545 19.0726 198.489 19.1649C198.508 19.2388 198.433 19.2573 198.396 19.3127C198.378 19.5158 198.303 19.7744 198.452 19.9407C198.452 20.0884 198.527 20.2177 198.638 20.31C198.676 20.31 198.713 20.2916 198.731 20.2731C198.862 20.3655 198.918 20.5871 199.104 20.5317C199.16 20.5132 199.141 20.4578 199.16 20.4024C199.253 20.4947 199.29 20.6794 199.476 20.661C199.514 20.6979 199.551 20.7903 199.625 20.7903C199.812 20.7348 199.756 21.0119 199.886 21.0858C199.998 21.1597 200.054 21.3074 200.203 21.2335L200.259 21.1597C200.315 21.1966 200.259 21.2889 200.315 21.3259C200.389 21.4736 200.538 21.566 200.687 21.6029C200.818 21.7507 200.948 21.9169 201.097 22.0277L200.985 22.0647L200.091 22.9882C199.681 22.5079 199.216 21.9723 198.899 21.3813ZM197.856 16.1728C198.08 14.3259 198.88 12.719 200.166 11.2968L200.203 11.4261C200.501 11.7216 200.818 12.0356 201.116 12.3127C200.855 12.4789 200.724 12.7744 200.52 12.996C199.719 14.1227 199.253 15.3971 199.178 16.8193L199.216 16.9855C198.769 16.9486 198.284 16.9486 197.819 16.9855C197.837 16.7085 197.8 16.4314 197.856 16.1728ZM201.209 10.3918C202.643 9.37598 204.245 8.76648 206.051 8.69261L205.995 8.80342L206.014 9.87466L206.051 9.98548C204.301 10.0594 202.773 10.7243 201.451 11.9063L201.432 11.9617C201.134 11.6478 200.799 11.2784 200.445 11.0198H200.408C200.687 10.8536 200.929 10.5765 201.209 10.3918ZM206.07 13.5501C205.828 13.4947 205.623 13.6055 205.399 13.624C204.897 13.7533 204.45 14.0303 204.021 14.3259C204.002 14.3628 203.984 14.3997 203.947 14.4182C203.63 14.1412 203.332 13.7718 202.997 13.5317C203.872 12.8298 204.859 12.3496 205.995 12.2757L206.07 12.2388C206.014 12.6636 206.014 13.1253 206.07 13.5501ZM205.716 14.9908C205.697 14.9354 205.772 14.8615 205.697 14.8245C205.493 14.9169 205.567 15.1385 205.437 15.2863C205.418 15.3971 205.269 15.3417 205.195 15.4156C205.139 15.3232 205.027 15.3417 204.952 15.3786C204.841 15.3786 204.822 15.157 204.71 15.2678C204.673 15.3048 204.692 15.3786 204.617 15.3602C204.599 15.3232 204.561 15.3232 204.543 15.3048C204.543 15.2309 204.654 15.2493 204.617 15.1755C204.543 15.0277 204.356 15.0462 204.245 14.9538H204.133C204.654 14.3997 205.325 14.1596 206.051 14.0488C206.051 14.3628 206.014 14.7322 206.126 15.0277C206.014 14.88 205.846 15.0462 205.716 14.9908ZM204.468 18.6108C204.543 18.537 204.617 18.4261 204.654 18.3153L204.803 18.3892C204.654 18.4077 204.58 18.5554 204.468 18.6108ZM205.902 19.9591C205.846 20.0699 205.884 20.2177 205.865 20.3285C205.269 20.2177 204.729 19.9776 204.245 19.5897C204.524 19.2942 204.878 19.0172 205.083 18.7032C205.101 18.8509 205.288 18.9063 205.399 18.9802C205.642 19.091 205.921 19.2573 206.2 19.1465C206.182 19.1649 206.163 19.1834 206.144 19.2019C206.219 19.2757 206.089 19.3496 206.182 19.4235C206.2 19.4789 206.126 19.4789 206.126 19.5158C206.163 19.5897 206.107 19.7375 206.238 19.7744C206.275 19.8114 206.238 19.8852 206.182 19.8852C206.07 19.8668 205.958 19.8668 205.902 19.9591ZM203.127 15.157C202.997 15.2309 202.904 15.3602 202.829 15.471C202.717 15.5449 202.587 15.5264 202.494 15.6557C202.494 15.7111 202.55 15.7665 202.494 15.8034C202.382 15.8958 202.177 15.785 202.121 15.9697C202.103 16.1359 201.898 16.2282 201.916 16.4129C201.805 16.4868 201.823 16.6161 201.842 16.7269C201.898 16.8008 201.823 16.9301 201.916 16.9855C201.749 16.967 201.507 16.9301 201.358 17.004C201.451 16.8008 201.414 16.5607 201.469 16.3391C201.637 15.4156 202.065 14.6029 202.68 13.8641C202.997 14.1596 203.332 14.529 203.667 14.7876C203.406 14.7876 203.406 15.157 203.127 15.157ZM202.512 20.4209L202.475 20.1438C202.214 19.9222 202.308 19.5158 202.252 19.2388C202.065 19.091 202.214 18.8694 202.084 18.7032C202.084 18.4446 201.674 18.3523 201.805 18.0752C201.749 18.0013 201.693 17.909 201.749 17.8166C201.823 17.7243 202.01 17.8166 202.065 17.6873L202.103 17.4472C202.196 17.3918 202.326 17.5211 202.382 17.3918C202.475 17.1702 202.047 16.8932 202.419 16.7823C202.55 16.7639 202.699 16.7454 202.755 16.8932C202.773 17.0594 202.829 17.2441 202.755 17.4103C202.866 17.4472 202.773 17.5581 202.773 17.6319C202.699 17.6689 202.643 17.7428 202.55 17.7058C202.512 17.6504 202.457 17.5396 202.363 17.5581C202.289 17.6504 202.382 17.7428 202.382 17.8536C202.363 17.909 202.382 17.9829 202.345 18.0383C202.308 18.0198 202.289 18.0013 202.233 18.0013C202.159 18.0383 202.214 18.1306 202.233 18.1676C202.308 18.223 202.363 18.2968 202.475 18.2968L202.512 18.2414C202.494 18.0937 202.568 17.9829 202.568 17.8536L202.699 17.9275C202.81 18.4815 203.071 18.9802 203.388 19.4604L203.555 19.6267C203.146 19.9776 202.755 20.4024 202.401 20.7903C202.401 20.7718 202.382 20.6979 202.326 20.7348C202.289 20.5686 202.568 20.624 202.512 20.4209ZM205.381 22.0093L205.604 22.1016C204.822 21.9169 203.984 21.6399 203.313 21.0858C203.202 21.0119 203.127 20.8641 202.978 20.8641C203.295 20.6056 203.611 20.2731 203.872 19.9591C203.984 20.1808 204.245 20.2916 204.431 20.4393C204.766 20.5871 205.12 20.8826 205.53 20.8087C205.399 20.8457 205.288 20.9195 205.195 21.0304C205.139 21.1597 205.157 21.3259 204.99 21.3813C204.99 21.6029 205.213 21.8246 205.381 22.0093ZM204.04 18.5185C204.04 18.5554 204.096 18.6108 204.152 18.5739C204.207 18.5 204.04 18.3892 204.152 18.3523C204.226 18.4261 204.189 18.5739 204.226 18.6662C204.263 18.7217 204.282 18.7771 204.263 18.8325C204.133 18.9802 203.965 19.1095 203.891 19.2757C203.816 19.0726 203.63 18.9063 203.555 18.7032C203.425 18.4631 203.351 18.2045 203.239 17.9829C203.351 18.1122 203.63 17.9644 203.63 18.223C203.649 18.2414 203.667 18.223 203.704 18.223C203.742 18.186 203.742 18.186 203.798 18.2045C203.816 18.2414 203.928 18.2784 203.835 18.3153C203.854 18.4077 203.947 18.5 204.04 18.5185ZM206.051 11.7955C205.809 11.7401 205.586 11.8325 205.344 11.8509C204.338 12.0541 203.406 12.4789 202.643 13.1992L202.606 13.1069C202.308 12.8298 202.028 12.4789 201.693 12.2757C201.972 12.1095 202.233 11.8509 202.512 11.6662C203.555 10.9644 204.729 10.5765 206.033 10.5026C205.995 10.9274 206.033 11.3707 206.051 11.7955ZM200.948 16.9855L200.836 16.9486L199.607 16.967C199.719 15.6003 200.091 14.3443 200.892 13.2731L201.376 12.6636V12.5712C201.656 12.9037 201.991 13.2177 202.326 13.5132C201.432 14.4551 200.985 15.6003 200.892 16.8562C200.911 16.9116 200.911 16.967 200.948 16.9855ZM200.035 19.0541C199.905 19.0726 199.942 19.2019 199.905 19.2757C199.923 18.9618 199.774 18.6662 199.737 18.3523L199.644 17.5396L199.588 17.4657C199.979 17.5211 200.426 17.4842 200.836 17.5027L200.929 17.4657C200.892 17.6689 200.892 17.9459 201.022 18.1122C200.967 18.0567 200.892 17.909 200.78 17.909C200.557 17.9275 200.538 18.223 200.296 18.223C200.11 18.3707 200.072 18.5924 200.035 18.814C200.128 18.8694 199.979 18.9618 200.035 19.0541ZM201.395 17.5211L201.339 17.4103C201.469 17.5027 201.618 17.4842 201.767 17.4472C201.544 17.5211 201.637 17.7797 201.544 17.9459C201.525 18.0198 201.656 18.0567 201.637 18.1306C201.525 18.186 201.507 18.2968 201.469 18.3892C201.525 18.0937 201.414 17.8166 201.395 17.5211ZM206.107 23.9486L205.977 23.8562C204.301 23.7639 202.866 23.0805 201.618 22.0093C201.823 21.9908 201.898 22.2494 202.121 22.194C202.363 22.1755 202.55 21.9723 202.81 22.0093C202.941 22.0093 203.09 22.0093 203.164 21.88C203.202 21.7507 203.053 21.6768 203.034 21.566C203.891 22.194 204.841 22.6003 205.94 22.6372L206.051 22.6003V23.7823L206.107 23.9486ZM206.312 15.6742L206.387 15.7111C206.293 15.7111 206.182 15.6557 206.107 15.7296C206.051 15.7665 206.089 15.8404 206.107 15.8958C206.275 15.9512 206.312 16.2282 206.517 16.1174C206.61 16.1359 206.722 16.1544 206.759 16.2467C206.889 16.3021 206.908 16.5238 207.076 16.4683C207.076 16.5607 207.038 16.7085 207.15 16.7639C207.132 16.8377 207.02 16.8747 207.02 16.967C207.001 16.9855 206.983 17.0409 207.001 17.0778C207.169 17.0963 207.15 17.281 207.243 17.3918C207.206 17.5211 207.243 17.6504 207.374 17.7243C207.355 17.872 207.281 18.0013 207.225 18.1306C207.057 18.223 206.759 18.0013 206.703 18.3153C206.61 18.4261 206.685 18.6662 206.498 18.6662C206.126 18.6847 205.791 18.6108 205.511 18.4077C205.697 18.3153 206.014 18.4446 206.07 18.1676C206.126 18.1306 206.144 18.0567 206.107 18.0013C206.2 17.909 206.219 17.7982 206.275 17.7058C206.2 17.6319 206.238 17.595 206.256 17.5211C206.07 17.3364 205.828 17.4288 205.586 17.4288C205.437 17.5027 205.586 17.6689 205.493 17.7612C205.306 17.7797 205.306 17.9644 205.176 18.0567C205.101 18.0198 205.046 17.9275 205.046 17.8536H205.064C205.046 17.8905 205.083 17.9275 205.101 17.9275C205.269 17.9459 205.213 17.7612 205.269 17.6689C205.288 17.5581 205.548 17.4103 205.344 17.3364C205.325 17.2995 205.362 17.2256 205.306 17.2071C205.25 17.2256 205.139 17.2256 205.139 17.3364C205.176 17.4103 205.139 17.5027 205.064 17.5581H205.027C205.046 17.5027 205.008 17.4657 204.971 17.4472C204.859 17.4472 204.785 17.5211 204.673 17.5027C204.524 17.5396 204.375 17.5581 204.226 17.5581C204.207 17.4657 204.338 17.5027 204.375 17.4288C204.356 17.2995 204.45 17.2071 204.505 17.1148C204.543 17.0778 204.617 17.0963 204.654 17.1148C204.692 17.1517 204.729 17.1887 204.785 17.1702L204.822 17.0963C204.952 17.1702 204.878 17.5581 205.139 17.3918C205.176 17.2256 205.139 17.0224 205.213 16.8747C205.157 16.7269 205.306 16.6715 205.344 16.5792C205.474 16.5976 205.474 16.4314 205.53 16.3575C205.735 16.3021 205.958 16.2467 206.107 16.0251C206.051 15.9143 206.089 15.748 205.995 15.6557C206.089 15.6372 206.238 15.6003 206.312 15.6742ZM207.076 10.5396C207.858 10.6319 208.566 10.8536 209.255 11.1675C209.367 11.3153 209.553 11.4076 209.59 11.5923C209.478 11.8694 209.963 11.8509 209.739 12.128C209.721 12.2203 209.795 12.2573 209.832 12.3311C209.851 12.405 209.814 12.5158 209.907 12.5712C210.074 12.6082 210.13 12.3865 210.298 12.442C210.503 12.5897 210.559 12.8483 210.559 13.0699C210.577 13.2177 210.708 13.31 210.838 13.3654C211.099 13.2916 210.987 13.5871 211.155 13.661C211.36 13.6794 211.471 13.9565 211.695 13.9195C211.9 14.0673 212.012 14.2889 212.198 14.4552C212.198 14.4921 212.216 14.529 212.254 14.5475C212.365 14.566 212.421 14.4921 212.514 14.4921C212.868 15.1939 213.036 15.9697 213.092 16.8008L213.129 16.8932C212.701 16.8932 212.254 16.8932 211.807 16.9301C211.788 16.6715 211.807 16.4129 211.676 16.2098C211.751 16.0805 211.769 15.8958 211.751 15.748C211.732 15.6742 211.658 15.748 211.639 15.748C211.49 15.8773 211.471 16.0805 211.397 16.2467C211.266 16.4129 211.248 16.69 211.322 16.8747L211.378 16.9301H210.875C211.006 16.8562 210.764 16.7085 210.894 16.5792L211.117 16.5422C211.192 16.376 211.378 16.2652 211.36 16.062C211.453 15.9327 211.546 15.785 211.471 15.6187C211.36 15.3786 211.658 15.1201 211.434 14.8984C211.453 14.8245 211.416 14.7322 211.322 14.7322C211.248 14.7137 211.173 14.7322 211.173 14.6398C211.211 14.5844 211.322 14.5106 211.285 14.4182C211.229 14.3443 211.155 14.4182 211.08 14.3997C211.062 14.2889 211.267 14.1781 211.08 14.0858C210.95 14.0673 210.894 14.215 210.764 14.1596C210.708 14.1227 210.67 14.0303 210.726 13.9749L210.466 13.6425C210.447 13.6055 210.354 13.661 210.354 13.6055C210.372 13.347 210.056 13.1992 210.037 12.9406C209.944 12.8483 210.019 12.6821 209.888 12.6082C209.814 12.5528 209.739 12.4974 209.627 12.5343C209.516 12.3681 209.385 12.2203 209.236 12.0726C209.199 12.0541 209.162 12.091 209.143 12.1095C209.162 12.2388 209.311 12.3127 209.311 12.442C209.292 12.442 209.274 12.442 209.255 12.4604C209.274 12.5897 209.385 12.7005 209.46 12.7744C208.752 12.2388 207.914 11.9617 207.038 11.814C206.871 11.814 206.685 11.7401 206.517 11.7955C206.554 11.4077 206.536 10.9644 206.536 10.558L206.498 10.4657C206.703 10.558 206.889 10.5026 207.076 10.5396ZM207.43 8.74801C209.236 8.98812 210.838 9.70844 212.198 10.9828L212.049 11.0383C211.807 11.2968 211.509 11.5185 211.378 11.814C211.36 11.7216 211.229 11.6662 211.192 11.5923C211.173 11.3522 210.931 11.1121 210.708 10.9828C210.54 10.9459 210.484 10.6873 210.279 10.7612C210.093 10.6135 209.87 10.7243 209.702 10.7982V10.8166C208.845 10.3364 207.895 10.0409 206.871 9.96701C206.815 9.96701 206.796 10.004 206.74 10.004C206.796 9.96701 206.759 9.8562 206.759 9.80079C206.74 9.76385 206.685 9.70844 206.61 9.74538C206.591 9.78232 206.573 9.81926 206.573 9.8562C206.591 9.46833 206.61 8.96965 206.554 8.61872C206.815 8.72954 207.132 8.69261 207.43 8.74801ZM208.268 20.2546C208.659 20.2916 209.031 20.3839 209.385 20.5132C209.478 20.5132 209.572 20.5132 209.627 20.4393C209.609 20.2916 209.776 20.2177 209.758 20.0699C209.832 19.9407 209.776 19.7744 209.888 19.6636C209.907 19.5158 209.888 19.3312 209.776 19.2203C209.683 19.1649 209.59 19.2388 209.497 19.2573C209.385 19.3312 209.423 19.5713 209.236 19.5158C209.199 19.5713 209.106 19.5713 209.05 19.5528C209.031 19.5343 209.013 19.5343 209.013 19.4974C209.143 19.4235 209.385 19.4789 209.404 19.2573C209.497 19.1649 209.665 19.2019 209.758 19.1095C209.832 18.9987 209.851 18.9063 209.944 18.814C209.944 18.7771 209.963 18.7216 209.963 18.6847C209.981 18.7401 209.981 18.8325 210.074 18.8694C210.186 18.9063 210.223 18.814 210.261 18.7401C210.261 18.7032 210.279 18.6478 210.317 18.6847C210.428 18.7771 210.577 18.7032 210.708 18.7032C210.819 18.6662 210.95 18.6478 211.062 18.6478C210.95 19.1465 210.708 19.5897 210.41 20.033C210.298 20.1623 210.205 20.31 210.074 20.4578C210.037 20.347 210.037 20.2177 209.944 20.1253L209.888 20.1438C209.814 20.2916 209.665 20.4024 209.683 20.5686C209.572 20.7348 209.311 20.5871 209.143 20.6794C208.957 20.7348 208.845 20.5502 208.696 20.5132C208.529 20.4393 208.324 20.4393 208.175 20.347C208.212 20.2916 208.231 20.2546 208.268 20.2546ZM209.497 13.6425C209.255 13.9011 208.957 14.1596 208.752 14.4367L208.715 14.3443C208.119 13.8641 207.448 13.624 206.703 13.5317L206.591 13.5501V12.3496L206.554 12.2573C207.057 12.3311 207.541 12.405 208.007 12.5528C208.584 12.7559 209.125 13.0699 209.627 13.4763L209.739 13.5132L209.497 13.6425ZM211.378 17.4288C211.304 17.6689 211.304 17.9459 211.248 18.186C211.229 18.223 211.229 18.2784 211.211 18.3153C211.136 18.1676 211.062 17.9644 210.894 17.872C210.745 17.7982 210.838 17.595 210.708 17.5027L210.577 17.3734C210.782 17.4657 211.099 17.4472 211.378 17.4288ZM210.577 15.0647C210.726 15.1016 210.819 15.2678 210.968 15.3048C211.099 15.5079 211.155 15.748 211.229 15.9697C211.099 16.099 211.099 16.3945 210.838 16.3575C210.782 16.2098 210.95 16.1359 210.913 15.9881C210.95 15.9512 211.024 15.9327 211.043 15.8588C211.024 15.7296 210.857 15.748 210.838 15.6187C210.782 15.5449 210.689 15.5449 210.615 15.5264C210.447 15.4525 210.279 15.8773 210.242 15.5264C210.298 15.4895 210.335 15.4156 210.279 15.3602C210.13 15.2863 210.112 15.0831 209.963 14.9908C209.739 14.9908 209.534 14.8984 209.329 14.9538C209.199 14.9169 209.031 14.8245 208.92 14.9723C208.92 15.0831 208.845 15.1755 208.827 15.2863C208.771 15.2678 208.733 15.2124 208.696 15.157C209.087 14.7137 209.553 14.2705 209.963 13.8456L209.981 13.7902C210.186 14.0488 210.428 14.3074 210.577 14.5844C210.633 14.7691 210.298 14.9538 210.577 15.0647ZM208.044 19.3312C208.044 19.4974 207.802 19.4789 207.69 19.5897C207.634 19.5713 207.672 19.4974 207.69 19.4604C207.802 19.405 207.877 19.3127 208.044 19.3312ZM207.653 15.6372C207.579 15.6557 207.504 15.7111 207.43 15.6742C207.355 15.6003 207.262 15.4895 207.132 15.471C207.038 15.4895 206.983 15.6003 206.889 15.5449C207.057 15.3786 207.336 15.3417 207.467 15.1016C207.504 14.9908 207.541 14.8615 207.523 14.7507C207.486 14.6953 207.411 14.6398 207.355 14.6953C207.262 14.843 207.057 14.88 206.964 15.0277L206.647 14.9169C206.591 14.6214 206.666 14.252 206.591 13.9934C206.759 14.0488 206.945 14.0673 207.132 14.1042C207.597 14.215 208.007 14.4367 208.417 14.6768C208.324 14.7137 208.231 14.8245 208.156 14.8984C208.156 14.9723 208.249 14.9538 208.268 15.0092L208.361 14.9723C208.175 15.3232 207.709 15.2678 207.653 15.6372ZM210.168 22.5633C209.925 22.3417 210.317 22.1755 210.391 21.9723C210.354 21.7691 210.112 21.6399 209.944 21.5845C209.851 21.529 209.888 21.4367 209.888 21.3628C209.963 21.2889 210.056 21.2151 210.093 21.1042L210.13 21.1966L210.689 21.7692C210.689 21.8984 210.708 22.0093 210.838 22.0647C210.894 22.0831 210.968 22.0462 211.024 22.0647H210.987C210.745 22.3232 210.466 22.5264 210.186 22.7296L210.13 22.8219C210.074 22.7111 210.242 22.6557 210.168 22.5633ZM211.229 21.2705C211.117 21.1596 211.117 20.9565 210.913 20.9565C210.838 20.9565 210.819 21.0119 210.819 21.0673C210.819 21.1042 210.838 21.1412 210.801 21.1597L210.391 20.8087C210.577 20.7164 210.726 20.4578 210.875 20.2731C211.248 19.756 211.471 19.1649 211.658 18.5739C211.714 18.6293 211.807 18.6293 211.863 18.5924C211.918 18.537 211.937 18.4446 211.9 18.3892L211.769 18.2045C211.788 17.9275 211.863 17.6689 211.825 17.4103L211.918 17.4472C212.328 17.4472 212.757 17.4657 213.166 17.4288L213.11 17.5027C212.999 19.1095 212.44 20.5686 211.304 21.7507C211.36 21.5845 211.211 21.4367 211.229 21.2705ZM214.899 16.4499C214.917 16.5976 214.88 16.7823 214.973 16.9116L213.669 16.9301C213.632 16.9486 213.595 16.967 213.557 16.967L213.595 16.9116C213.576 15.8958 213.297 14.9908 212.906 14.1412C212.887 13.7533 212.514 13.4947 212.365 13.1623C212.086 12.9591 211.993 12.6267 211.658 12.442C211.602 12.3681 211.565 12.2573 211.471 12.2388L211.62 12.2018C211.937 11.8879 212.272 11.5739 212.514 11.2414C213.874 12.7559 214.731 14.4552 214.899 16.4499ZM214.47 13.2916C212.999 10.1702 209.758 8.19392 206.368 8.19392C204.878 8.21239 203.518 8.54485 202.27 9.15435C200.054 10.2071 198.247 12.4789 197.633 14.7322C196.645 18.537 197.986 22.3787 201.265 24.6135C203.63 26.2942 207.392 26.6082 210.056 25.3338C212.421 24.3549 214.433 21.9354 215.048 19.5528C215.662 17.5581 215.401 15.0831 214.47 13.2916Z" fill="#FEFEFE"/>
<path d="M210.354 10.4842C210.354 10.5396 210.354 10.5765 210.391 10.6135C210.577 10.6873 210.596 10.9459 210.838 10.8905C210.913 10.8166 210.801 10.7243 210.819 10.6135C210.782 10.5211 210.708 10.4842 210.615 10.4472C210.503 10.558 210.428 10.3918 210.354 10.4842Z" fill="#FEFEFE"/>
<path d="M206.759 9.72691C207.001 10.0224 207.411 9.8562 207.709 9.80079C207.933 9.89314 208.137 9.78232 208.286 9.65303V9.61609C208.137 9.39445 207.839 9.37598 207.579 9.35751L206.927 9.63456C206.871 9.61609 206.778 9.57915 206.74 9.65303C206.722 9.68997 206.74 9.70844 206.759 9.72691Z" fill="#FEFEFE"/>
<path d="M408.951 9.89067H399.079V0.86145H429.668V9.89067H419.798V36.09H408.951V9.89067ZM431.353 0.86145H461.047V9.89067H442.207V14.2807H461.047V22.6711H442.207V27.0612H461.052V36.09H431.353V0.86145ZM462.874 0.86145H480.685C492.426 0.86145 496.575 9.54562 496.575 18.4241C496.575 29.2327 490.852 36.09 478.566 36.09H462.874V0.86145ZM473.727 27.0612H477.972C484.733 27.0612 485.722 21.5829 485.722 18.2733C485.722 16.0572 485.027 9.89067 477.182 9.89067H473.727V27.0612Z" fill="#FF2B06"/>
</svg>
