<svg width="118" height="33" viewBox="0 0 118 33" fill="none" xmlns="http://www.w3.org/2000/svg">
<path d="M55.1068 18.3211C54.8009 18.1422 54.6862 18.3897 54.595 18.5746C54.3126 19.1532 53.9332 19.6662 53.5302 20.1493C52.9096 20.8949 52.339 21.7151 51.389 22.0938C51.0801 22.0521 50.8066 22.064 50.5448 22.3056C49.8624 22.9408 49.033 23.2599 48.1211 23.3733C48.0153 23.4568 47.8976 23.5015 47.7741 23.5373C47.7741 23.5373 47.7741 23.5373 47.7711 23.5373C47.6564 23.5701 47.5358 23.591 47.4182 23.6178C47.2623 23.6566 47.1093 23.7043 46.9799 23.8087C45.7887 23.6506 45.0328 22.6814 45.0004 21.3393C44.9828 20.7458 45.1651 20.4505 45.7769 20.3223C47.027 20.0569 48.2829 19.7586 49.4006 19.0936C51.1419 18.0617 52.7478 16.9105 53.189 14.6945C53.492 13.1765 52.7037 11.9597 51.1389 11.8941C50.4595 11.8673 49.8153 12.0104 49.1683 12.1565C47.6799 12.6128 46.5417 13.5941 45.4828 14.6886C44.3474 15.8577 43.4562 17.2117 42.9121 18.7476C42.6297 19.5499 42.2797 20.2298 41.6208 20.7398C40.9149 21.2886 40.1413 21.5302 39.2619 21.22C38.5471 21.1693 38.2412 20.5997 37.95 20.0748C37.5677 19.3858 37.5206 18.5776 37.3 17.829C37.1029 17.164 37.1912 16.4213 36.7765 15.8189C36.2264 15.0107 36.3353 14.3575 37.1441 13.7521C39.0001 12.3653 40.7267 10.8503 42.1767 9.01312C43.8474 6.89862 45.3475 4.71253 45.6475 1.927C45.7593 0.874216 45.3357 -0.181545 43.9974 0.0272212C43.6768 0.0749392 43.365 0.173358 43.0503 0.247917C40.8267 1.6049 39.4766 3.74028 38.1854 5.91443C36.3117 9.0668 34.9146 12.4518 33.5792 15.8607C33.1204 17.0297 32.8174 18.2704 32.2968 19.4067C31.485 21.1753 30.1938 22.4815 28.3113 23.1257C27.8907 23.2719 27.5613 23.0392 27.1877 23.0422C26.4671 22.5829 26.4759 21.8373 26.4406 21.1067C26.4524 21.0917 26.4642 21.0768 26.473 21.0619C26.6583 20.7667 26.4318 20.379 26.6612 20.0956C27.0466 18.6104 27.8584 17.3369 28.6055 16.0277C29.029 15.291 29.5732 14.62 29.7702 13.7521C29.882 13.257 29.7938 12.9111 29.3673 12.6546C29.0408 12.4518 28.7113 12.5144 28.3819 12.6457C28.129 12.6964 27.9466 12.929 27.6731 12.923C26.8524 13.8863 26.1289 14.9003 25.6082 16.0784C24.9817 17.492 24.4817 18.9265 24.1788 20.4535C23.9641 21.5242 23.9346 22.4964 24.4523 23.4747C24.7347 24.0085 25.1818 24.3157 25.6818 24.5781C26.7848 24.9539 27.8466 24.7273 28.8967 24.3425C29.5967 24.0115 30.185 23.5045 30.8173 23.0661C30.9438 23.1526 31.0703 23.2361 31.1938 23.3226C31.0115 24.1069 30.8732 24.9092 30.635 25.6757C30.4703 26.2095 30.4938 26.7642 30.3291 27.2861C30.0467 27.5814 30.0702 27.9423 30.1114 28.3061C30.1173 29.2635 30.0496 30.2238 30.2114 31.1811C30.3114 31.7955 30.7762 32.1981 30.9762 32.7439C31.8762 33.0362 32.7498 33.1316 33.5675 32.4904C34.0204 32.1325 34.4146 31.7299 34.7381 31.2557C36.1647 29.165 36.8412 26.803 37.2029 24.3246C37.4588 23.9369 37.1735 23.4538 37.4177 23.0661C37.4265 22.9021 37.4324 22.738 37.4383 22.574C37.4353 22.3533 37.3971 22.1266 37.5118 21.888C37.8147 22.0401 38.1118 22.1893 38.4089 22.3384C38.653 22.4219 38.8972 22.5084 39.1442 22.5919C39.4707 22.7798 39.8001 22.7231 40.1325 22.6038C40.2943 22.6008 40.459 22.5949 40.6237 22.5889C41.1061 22.3056 41.5914 22.0252 42.0679 21.733C42.4973 21.4705 42.4356 21.8851 42.4767 22.061C42.7003 23.0571 43.2209 23.8415 44.0151 24.4559C44.3915 24.7481 44.8327 24.8794 45.2475 25.0762C45.471 25.0792 45.7181 25.0225 45.9122 25.1001C46.7975 25.455 47.6476 25.1269 48.4859 24.9569C50.7683 24.4917 52.4714 23.078 53.9067 21.3065C54.4803 20.5967 55.0097 19.8302 55.3274 18.9444C55.4274 18.6701 55.3627 18.4702 55.1068 18.3211ZM49.1271 14.0235C49.2388 13.946 49.3889 13.9281 49.5212 13.8833C49.5624 14.623 49.23 15.2523 48.83 15.807C48.1859 16.7047 47.3593 17.4324 46.424 18.0199C46.2622 18.1213 46.0828 18.1422 45.9004 18.1362C46.6299 16.487 47.6417 15.0614 49.1271 14.0235ZM41.1737 4.94814C41.6855 4.14887 42.1679 3.31976 43.0503 2.86346C43.2091 2.77995 43.3738 2.7054 43.5356 2.62785C43.8533 2.98276 43.6915 3.37941 43.565 3.7194C43.3415 4.33079 43.0738 4.93323 42.7032 5.47602C42.0767 6.73757 41.2237 7.84403 40.3149 8.89979C39.7148 9.60065 39.1707 10.3701 38.4207 10.9308C38.3236 11.0053 38.2206 11.0382 38.1295 10.9248C38.0618 10.8354 38.1059 10.7489 38.1648 10.6713C38.9295 8.63436 40.0031 6.76441 41.1737 4.94814ZM32.641 30.4624C32.5086 29.9136 32.5968 29.3649 32.5615 28.8161C32.5527 28.3777 32.4439 27.9184 32.7704 27.5337C33.0586 25.8964 33.3322 24.2531 33.9175 22.6873C34.1587 21.396 34.5999 20.1612 34.9911 18.9146C35.0205 18.8162 35.0411 18.676 35.1587 18.7029C35.2646 18.7297 35.3999 18.8222 35.4352 18.9176C35.6617 19.5409 36.0352 20.1225 35.9911 20.8233C36.0558 21.3423 36.2911 21.8373 35.797 22.3384C35.5587 22.577 35.7735 23.081 35.7058 23.4598C35.5264 24.4857 35.3617 25.5116 35.0705 26.5137C34.7381 27.647 34.4528 28.7893 33.8616 29.8271C33.6792 30.1492 33.4704 30.4445 33.2645 30.7457C32.9086 30.9843 32.7439 30.8829 32.641 30.4624Z" fill="#ACACAC"/>
<path d="M117.489 18.333C117.213 18.1541 117.133 18.4076 117.025 18.5597C116.657 19.0757 116.336 19.6304 115.93 20.1135C115.298 20.871 114.727 21.7121 113.76 22.0998C113.345 22.0461 113.033 22.2787 112.716 22.4964C112.142 22.8842 111.548 23.2212 110.845 23.3047C110.648 23.3584 110.457 23.412 110.263 23.4717H110.26C110.168 23.4985 110.077 23.5254 109.989 23.5582C109.771 23.6297 109.557 23.7103 109.348 23.8057C108.192 23.6476 107.43 22.6814 107.371 21.3751C107.345 20.7577 107.521 20.4267 108.171 20.3223C109.439 20.1195 110.663 19.7288 111.786 19.0906C113.51 18.1064 115.039 16.9701 115.545 14.8258C115.93 13.1884 115.154 11.8971 113.38 11.8852C112.739 11.8822 112.148 12.0641 111.533 12.1565C110.889 11.906 110.363 12.2311 109.842 12.5353C108.818 13.1288 108.077 14.0504 107.274 14.8944C106.28 15.9382 105.501 17.1401 105.027 18.5299C104.712 19.4544 104.571 20.4535 103.862 21.217C103.6 21.4944 103.35 21.8016 103.145 22.1356C103.103 22.1803 103.062 22.2191 103.018 22.2549C102.862 22.3772 102.692 22.4368 102.506 22.4457C102.386 22.4547 102.262 22.4398 102.133 22.407C101.844 22.7678 101.374 22.6128 101.033 22.8156C100.559 22.064 100.886 21.3333 101.156 20.6444C101.621 19.4544 102.121 18.3032 102.044 16.9612C101.933 15.0286 100.786 13.9609 98.8913 14.1607C98.6119 14.1905 98.3443 14.3039 98.0707 14.3754C97.6854 14.113 97.2471 14.3009 96.9883 14.4768C95.8559 15.2523 94.6353 15.9501 93.9176 17.1938C93.9382 17.1341 93.9499 17.0715 93.947 17.0029C93.9323 16.6271 94.3205 16.2036 93.8146 15.8815C93.4146 14.6289 93.0969 14.4679 91.8028 14.8556C91.7086 14.8854 91.6028 14.8795 91.5027 14.8914C91.0174 14.9928 90.7056 15.291 90.5527 15.7682C90.4615 16.0814 90.4939 16.4124 90.4497 16.7315C90.2644 19.6483 88.0908 22.228 85.2818 22.8812C85.1554 22.911 85.0142 22.9438 84.9053 23.0392C84.2583 22.5233 84.0994 21.8194 84.2141 21.044C84.423 19.6214 84.9701 18.3241 85.7083 17.0954C86.3025 16.1142 86.8819 15.121 87.4172 14.104C87.7437 13.4837 87.6143 13.093 87.0849 12.6516C86.7584 12.4548 86.429 12.5115 86.0995 12.6486C85.8495 12.7023 85.6701 12.9409 85.3936 12.926C84.723 12.9081 84.4289 13.4509 84.1288 13.8923C82.5905 16.1649 81.7758 18.7208 81.4228 21.4317C81.2875 22.4756 81.617 23.4329 82.2846 24.2441C82.5729 24.596 82.9641 24.6885 83.3994 24.5781C84.2171 24.8167 85.0201 24.8376 85.8525 24.5781C86.4613 24.3903 87.0055 24.089 87.5731 23.8206C88.0732 23.9459 88.5702 23.6536 89.0703 23.7968C89.4085 23.8057 89.6526 24.1129 89.9997 24.0861C90.3321 24.2352 90.6586 24.262 90.9792 24.0532C91.8086 22.5442 92.744 21.1007 93.7911 19.7407C94.7264 18.5299 95.7471 17.3817 97.1266 16.651C97.3148 16.8866 97.5619 16.9254 97.8531 16.9343C98.5413 16.9552 98.8796 17.334 98.8825 18.0378C98.8825 18.3509 98.8031 18.6462 98.7237 18.9474C98.4854 19.863 98.159 20.7518 98.0648 21.7091C97.9972 22.3772 98.1354 22.9557 98.3913 23.5612C98.5943 24.0294 99.0002 24.0473 99.3384 24.2292C99.3502 24.2352 99.362 24.2411 99.3737 24.2471C99.4531 24.265 99.5326 24.2859 99.6149 24.2948C99.6767 24.3067 99.7414 24.3097 99.8061 24.3038C101.144 24.4857 102.406 24.271 103.574 23.5582C103.892 23.6089 104.03 23.3375 104.221 23.1764C104.486 22.9527 104.695 22.8931 104.892 23.2659C105.195 23.8355 105.683 24.2531 106.165 24.6438C106.568 24.9688 107.039 25.2551 107.612 25.0732C107.854 25.0822 108.121 25.0255 108.336 25.109C109.242 25.452 110.113 25.1269 110.963 24.948C113.257 24.4588 114.936 22.9826 116.386 21.211C116.942 20.534 117.392 19.7706 117.722 18.9444C117.842 18.6462 117.716 18.4792 117.489 18.333ZM111.886 13.8833C111.901 14.3635 111.818 14.8258 111.574 15.2373C110.892 16.4005 109.936 17.2922 108.818 18.0139C108.677 18.1064 108.518 18.1302 108.354 18.1094C108.409 17.5278 108.786 17.1043 109.083 16.651C109.674 15.7473 110.333 14.8914 111.186 14.2233C111.389 14.0653 111.607 13.8923 111.886 13.8833Z" fill="#ACACAC"/>
<path d="M62.7631 25.3804C62.7954 25.3655 62.8307 25.3446 62.866 25.3118C62.8307 25.3357 62.7954 25.3595 62.7631 25.3804ZM79.9904 23.3196C79.5757 23.7252 79.0345 23.7311 78.5168 23.8117C78.1727 23.409 77.7609 23.8087 77.3903 23.7133C77.0608 23.8683 76.7079 23.8504 76.3696 23.7997C74.1107 23.4627 71.9341 22.7649 69.7428 22.1475C69.3399 22.0342 69.3075 21.7777 69.5193 21.4407C69.8693 20.883 70.2105 20.3253 70.484 19.7228C71.64 17.1729 72.593 14.5454 73.4165 11.8673C73.5548 11.4229 73.7607 11.1634 74.2695 11.1724C76.0167 11.2081 77.6285 10.6862 79.0109 9.64538C81.2993 7.91561 82.6199 5.66689 82.2023 2.64575C82.0287 1.3842 81.2346 0.668432 80.0992 0.250899C79.1551 -0.0950562 78.2285 -0.0204968 77.2961 0.256864C77.2108 0.158446 77.1167 0.149499 76.9873 0.17634C76.202 0.334406 75.5961 0.796674 75.1049 1.39315C74.0195 2.70838 73.143 4.14886 72.5312 5.76233C72.2194 6.58547 71.9547 7.42948 71.6047 8.2377C71.3841 8.75067 71.19 8.77453 70.787 8.4077C70.5605 8.20191 70.3634 7.96631 70.084 7.82315C69.7487 6.77336 69.8369 5.73847 70.187 4.70955C70.284 4.6171 70.3252 4.50675 70.1987 4.41728C70.0311 4.29798 69.8664 4.3636 69.7105 4.45903C69.4575 4.47096 69.2487 4.5992 69.0663 4.75429C68.7075 5.06445 68.3663 5.40146 68.0192 5.72654C67.728 5.68777 67.6457 5.88163 67.5809 6.11425C67.2603 7.29527 67.4662 8.35998 68.2516 9.29943C68.731 9.87205 69.3016 10.3462 69.9575 10.6833C70.4605 10.9427 70.587 11.2887 70.4223 11.7927C69.481 14.6528 68.6575 17.5517 67.4221 20.3014C67.2162 20.7577 66.8956 20.9814 66.4074 20.8979C66.1015 20.8442 65.825 20.871 65.5779 21.0679C64.1837 20.8263 62.7895 20.6414 61.4012 21.0888C61.0747 21.2558 60.7835 21.4556 60.6688 21.8344C60.6453 21.8582 60.6247 21.8821 60.6012 21.9059C60.5453 21.9894 60.5453 22.1028 60.4982 22.1952C60.6306 22.4756 60.4306 22.8305 60.6483 23.0899C60.6688 23.4627 60.9336 23.7103 61.0894 24.0145C61.1042 24.0413 61.1159 24.0652 61.1277 24.092C61.4483 24.5483 61.9042 24.8257 62.3719 25.0881C62.5366 25.1627 62.7013 25.2372 62.866 25.3118C63.6719 25.5415 64.4632 25.5892 65.2926 25.3536C66.1573 25.109 66.8309 24.5931 67.5133 24.0652C67.7927 24.0592 68.0751 24.0473 68.3369 24.1815C69.0251 24.5304 69.7575 24.778 70.4634 25.0881C71.787 25.6697 73.1224 26.2304 74.549 26.5107C74.549 26.5107 74.549 26.5107 74.5519 26.5107C74.6343 26.5256 74.7137 26.5405 74.796 26.5555C74.8313 26.5644 74.8637 26.5704 74.899 26.5763H74.9019C75.0637 26.6032 75.2137 26.5912 75.3372 26.4391C77.4962 26.809 78.9315 26.5674 80.0757 24.5811C80.1845 24.3962 80.2433 24.1487 80.4875 24.0682C80.7287 23.8087 81.0522 23.5343 80.6963 23.1764C80.4669 22.9468 80.1904 23.087 79.9904 23.3196ZM78.005 1.72718C78.2756 4.65289 77.055 6.94335 75.0225 8.8819C74.849 9.04891 74.6607 9.21891 74.3872 9.20698C74.5931 8.04981 75.1225 7.003 75.4931 5.9025C75.8784 4.76622 76.3932 3.66274 77.0844 2.66662C77.3373 2.30576 77.5815 1.92103 78.005 1.72718ZM65.6956 23.5254C65.0367 24.1218 64.269 24.4201 63.3719 24.2978C62.6895 24.2173 62.1689 23.8594 61.7924 23.3017C61.4895 22.8484 61.7248 22.404 62.3895 22.0968C62.8895 22.1356 63.4278 21.9119 63.8749 22.3175C64.5014 22.2787 65.0455 22.5561 65.6044 22.7768C66.0603 22.9587 65.9868 23.2599 65.6956 23.5254Z" fill="#ACACAC"/>
<path d="M62.866 25.3118C62.8307 25.3357 62.7954 25.3595 62.7631 25.3804C62.2454 25.6876 61.7277 25.6429 61.2071 25.3565C61.1865 25.3446 61.163 25.3327 61.1424 25.3208C59.8747 25.0792 58.7246 23.919 58.5276 22.6396C58.4393 22.0551 58.754 21.6196 59.1717 21.2588C59.7541 20.7547 60.9071 20.6712 61.4012 21.0888C61.0747 21.2558 60.7835 21.4556 60.6688 21.8344C60.6394 21.8552 60.6188 21.8791 60.6012 21.9059C60.5453 21.9894 60.5453 22.1028 60.4982 22.1952C60.6306 22.4756 60.4306 22.8305 60.6483 23.0899C60.6688 23.4627 60.9336 23.7103 61.0894 24.0145C61.1042 24.0413 61.1159 24.0652 61.1277 24.092C61.4483 24.5483 61.9042 24.8257 62.3719 25.0881C62.5366 25.1627 62.7013 25.2372 62.866 25.3118Z" fill="#010101"/>
<path d="M5.0278 25.3893C5.06604 25.3774 5.10722 25.3536 5.1484 25.3118C5.10722 25.3386 5.06898 25.3655 5.0278 25.3893ZM22.2728 23.3196C21.8581 23.7222 21.3169 23.7341 20.7992 23.8117C20.4551 23.409 20.0433 23.8087 19.6727 23.7133C19.2609 23.8952 18.8285 23.8385 18.4079 23.7759C16.2666 23.4627 14.2136 22.7887 12.1429 22.1922C11.687 22.061 11.5399 21.8373 11.8281 21.387C12.4929 20.3491 13.0047 19.2278 13.4753 18.0855C14.3165 16.0545 15.0489 13.9788 15.6989 11.8762C15.8195 11.4795 15.9754 11.1455 16.4813 11.1783C17.3284 11.232 18.1255 10.9994 18.9344 10.7727C22.1316 9.86906 24.8494 6.68388 24.5111 2.9589C24.3935 1.6556 23.6082 0.644573 22.3816 0.244935C21.4316 -0.0622501 20.5109 -0.0294439 19.5756 0.253882C18.9432 0.0987983 18.4373 0.373177 17.9873 0.775798C16.9137 1.73016 16.1784 2.93504 15.5225 4.20255C14.8548 5.48199 14.4077 6.85686 13.8665 8.18998C13.6488 8.72085 13.5106 8.7805 13.0782 8.42559C12.8958 8.27349 12.7282 8.1542 12.487 8.19893C11.8693 7.03879 12.0693 5.87566 12.4694 4.70955C12.5664 4.6171 12.6076 4.50675 12.4811 4.41728C12.3135 4.29798 12.1488 4.36658 11.9929 4.45903C11.4958 4.53061 11.1546 4.86165 10.8193 5.18971C10.6163 5.38357 10.5075 5.68181 10.1839 5.72952C10.1369 6.09636 10.0781 6.46021 10.0457 6.82406C9.91335 8.24068 10.6957 9.16224 11.7281 9.91678C12.1164 10.2001 12.5547 10.4238 12.9929 10.6206C13.3135 10.7638 13.337 10.9218 13.2312 11.235C12.6194 13.0393 11.9987 14.8437 11.4458 16.6659C11.0222 18.0676 10.5046 19.4216 9.88981 20.7518C9.60156 21.3781 9.23096 21.4288 8.68387 21.2647C8.41327 21.1812 8.13384 21.1335 7.85736 21.0709C6.46611 20.8233 5.07192 20.6444 3.68068 21.0858C3.18359 21.2498 3.01594 21.7359 2.71886 22.0938C2.58651 22.8245 3.03653 23.4001 3.21301 24.0473C3.71597 24.3634 4.08952 24.8615 4.65426 25.0881L5.1484 25.3118C5.97491 25.5474 6.78672 25.5892 7.63382 25.3386C8.4721 25.0881 9.12507 24.5722 9.79569 24.0622C10.0781 23.4985 10.534 23.7371 10.884 23.8952C12.7605 24.7392 14.6489 25.5444 16.5872 26.2274C16.7578 26.287 16.9431 26.293 17.1225 26.3228C17.0402 26.4272 16.9402 26.4809 16.8343 26.5107C16.9166 26.5286 16.9961 26.5405 17.0784 26.5555C17.1137 26.5644 17.149 26.5704 17.1843 26.5763C17.3461 26.6032 17.4961 26.5912 17.6196 26.4391C19.7433 26.806 21.2198 26.5763 22.3522 24.5781C22.4581 24.3932 22.514 24.1427 22.764 24.0682C22.7669 23.7043 23.0258 23.1705 22.2728 23.3196ZM20.2845 1.72419C20.2992 1.89717 20.3168 2.07015 20.3315 2.24313C20.3315 2.57417 20.3345 2.90521 20.3345 3.23924C19.9962 5.46708 18.9873 7.32808 17.3461 8.84014C17.1549 9.0161 16.9608 9.20996 16.6696 9.20697C16.6813 9.0847 16.6725 8.95646 16.7107 8.84313C17.4461 6.74055 18.0961 4.5992 19.3344 2.71732C19.5903 2.32962 19.8491 1.93892 20.2845 1.72419ZM7.97501 23.5224C7.31616 24.1159 6.55435 24.4231 5.65431 24.2978C4.94251 24.2232 4.40718 23.8415 4.03658 23.251C3.76892 22.8305 4.04246 22.3801 4.6719 22.0968C5.17193 22.1356 5.71019 21.9149 6.15433 22.3175C6.78083 22.2817 7.32498 22.5591 7.88383 22.7798C8.34268 22.9587 8.27209 23.2569 7.97501 23.5224Z" fill="#ACACAC"/>
<path d="M43.0503 0.247917C40.8267 1.6049 39.4766 3.74028 38.1854 5.91443C36.3117 9.0668 34.9146 12.4518 33.5792 15.8607C33.1204 17.0297 32.8174 18.2704 32.2968 19.4067C31.485 21.1753 30.1938 22.4815 28.3113 23.1257C27.8907 23.2719 27.5613 23.0392 27.1877 23.0422C27.3142 22.8245 27.5113 22.6903 27.7084 22.5382C29.0114 21.5212 30.0673 20.3342 30.6262 18.6969C32.188 14.1279 33.994 9.66626 36.4617 5.50883C37.4177 3.89835 38.4824 2.37137 39.8854 1.12175C40.6149 0.471595 41.4208 -0.0294439 42.4503 0.0152917C42.6797 0.0242388 42.9032 0.0331859 43.0503 0.247917Z" fill="#010101"/>
<path d="M13.2312 11.235C12.6194 13.0393 11.9987 14.8437 11.4458 16.6659C11.0222 18.0676 10.5046 19.4216 9.88981 20.7518C9.60156 21.3781 9.23096 21.4288 8.68387 21.2647C8.41327 21.1812 8.13384 21.1335 7.85736 21.0709C8.13973 20.0569 8.68975 19.1562 9.00742 18.1511C9.72804 15.8577 10.4869 13.5762 11.2546 11.2976C11.4428 10.7399 11.084 10.6087 10.7251 10.4536C9.74275 10.0301 8.95153 9.38294 8.41327 8.43752C7.56617 6.95528 8.38974 4.92727 10.0369 4.45903C10.2192 4.49184 10.4075 4.51868 10.5104 4.70955C10.3663 5.03761 10.2192 5.36567 10.1839 5.72952C10.1369 6.09636 10.0781 6.46021 10.0457 6.82406C9.91335 8.24068 10.6957 9.16224 11.7281 9.91678C12.1164 10.2001 12.5547 10.4238 12.9929 10.6206C13.3135 10.7638 13.337 10.9218 13.2312 11.235Z" fill="#010101"/>
<path d="M10.5104 4.70955C10.4075 4.51868 10.2192 4.49184 10.0369 4.45903C10.1928 4.36658 10.3575 4.29798 10.5251 4.41728C10.6516 4.50973 10.6104 4.6171 10.5104 4.70955Z" fill="#1B1D20"/>
<path d="M68.0192 5.72654C67.1809 7.94245 68.4192 9.49627 70.3076 10.4059C70.8605 10.6713 71.0988 10.8413 70.8547 11.5511C69.8399 14.4947 69.0957 17.5338 67.7898 20.376C67.2839 21.4795 67.2427 21.5093 66.1073 21.1931C65.9338 21.1454 65.7544 21.1096 65.5779 21.0709C66.9868 17.9155 67.878 14.5753 68.9928 11.3125C69.1752 10.7817 68.8546 10.6355 68.531 10.4805C67.828 10.1434 67.1633 9.76468 66.6368 9.16522C65.3308 7.67702 65.5926 5.73251 67.2486 4.66183C67.4074 4.55745 67.5692 4.48587 67.7545 4.46202C67.9104 4.36658 68.0751 4.30097 68.2428 4.42026C68.3722 4.50973 68.328 4.62008 68.231 4.71552C68.0604 5.02867 67.9722 5.36269 68.0192 5.72654Z" fill="#1B1D20"/>
<path d="M80.4845 24.0652C80.4875 23.7013 80.7287 23.1734 79.9874 23.3196C80.061 22.8514 79.7816 22.4487 79.758 21.9924C79.7169 21.217 79.9257 20.4804 80.1022 19.7467C80.5845 17.7425 81.2993 15.8308 82.4699 14.119C82.9023 13.4867 83.4112 12.9349 84.1406 12.6457C84.47 12.5085 84.7995 12.4548 85.1259 12.6516C85.2142 12.7411 85.3024 12.8335 85.3907 12.923C84.3906 14.0444 83.6082 15.303 83.0376 16.6957C82.3876 18.2853 81.8434 19.9197 81.7405 21.6405C81.664 22.9229 82.164 23.9906 83.3965 24.5752C82.6405 25.0673 81.9376 24.6676 81.2287 24.435C80.9699 24.3515 80.7346 24.1934 80.4845 24.0652Z" fill="#1B1D20"/>
<path d="M25.6818 24.5781C24.9023 25.0613 24.1817 24.6706 23.4581 24.4082C23.217 24.3217 22.9934 24.1815 22.764 24.0682C22.7669 23.7043 23.0258 23.1705 22.2728 23.3196C22.2787 22.6814 21.9169 22.0908 22.0463 21.4347C22.2787 20.2477 22.4434 19.0458 22.8846 17.9096C23.3993 16.5884 23.9288 15.2761 24.7494 14.113C25.1906 13.4897 25.6906 12.929 26.423 12.6457L27.4113 12.6546C27.4966 12.7441 27.5848 12.8335 27.6731 12.923C26.8524 13.8863 26.1289 14.9003 25.6082 16.0784C24.9817 17.492 24.4817 18.9265 24.1788 20.4535C23.9641 21.5242 23.9346 22.4964 24.4523 23.4747C24.7347 24.0085 25.1818 24.3157 25.6818 24.5781Z" fill="#010101"/>
<path d="M26.423 12.6457L27.4113 12.6546C27.0819 12.4518 26.7554 12.5144 26.423 12.6457Z" fill="#1B1D20"/>
<path d="M102.256 22.8394C101.841 23.2092 101.433 23.1615 101.033 22.8156C101.294 22.1624 101.927 21.8224 102.309 21.2617C102.662 20.7458 102.942 20.2418 103.095 19.6214C103.633 17.4055 104.918 15.6549 106.521 14.107C107.571 13.093 108.73 12.2818 110.177 11.9985C110.63 11.909 111.13 11.6824 111.533 12.1565C110.162 12.5979 109.06 13.4598 108.074 14.4828C106.512 16.1082 105.386 17.9603 104.877 20.2239C104.683 21.0828 103.947 21.7628 103.227 22.3324C102.868 22.4308 102.527 22.568 102.256 22.8394Z" fill="#1B1D20"/>
<path d="M33.5763 5.07638C33.3939 5.66988 33.1469 6.24249 32.9292 6.82406C32.4792 7.48913 31.9586 8.02894 31.0732 7.95736C30.8173 7.90666 30.6262 7.66807 30.3438 7.70088C30.0849 7.37878 29.7761 7.09545 29.6114 6.70774C29.4143 6.29319 29.4231 5.88163 29.6026 5.46409C29.7379 4.84078 30.0614 4.26816 30.0879 3.61502C30.4967 2.70241 31.1468 2.08208 32.1498 1.89121C33.9263 2.46084 34.0969 3.39432 33.5763 5.07638Z" fill="#ABABAB"/>
<path d="M88.0761 4.24132C88.1908 4.14887 88.2585 4.03255 88.2996 3.8894C88.732 2.46084 89.0144 2.24909 90.5115 2.22822C90.5998 2.14471 90.6909 2.06717 90.8204 2.07015C92.1146 2.50558 92.5293 3.36152 92.0528 4.65587C91.8028 5.33883 91.6704 6.05759 91.4175 6.73757C91.2586 7.04177 91.0763 7.33106 90.9998 7.66807C90.3233 8.18402 89.5379 8.13929 88.7556 8.13034C88.6379 8.13034 88.5202 8.11841 88.4202 8.04683C87.7408 7.52492 87.1996 6.93142 87.3231 5.9711C87.3672 5.41936 87.6879 4.94516 87.779 4.40237C87.7937 4.3636 87.9261 4.20255 88.0761 4.24132Z" fill="#ABABAB"/>
<path d="M49.1683 12.1565C47.6799 12.6128 46.5417 13.5941 45.4828 14.6886C44.3474 15.8577 43.4562 17.2117 42.9121 18.7476C42.6297 19.5499 42.2797 20.2298 41.6208 20.7398C40.9149 21.2886 40.1413 21.5302 39.2619 21.22C39.2795 21.1633 39.2795 21.0739 39.3178 21.047C40.6649 20.1911 40.8855 18.6223 41.5973 17.3608C42.8326 15.1658 44.4827 13.3972 46.7623 12.2908C47.3417 12.0074 47.9505 11.8792 48.5918 11.906C48.8153 11.915 49.0535 11.8911 49.1683 12.1565Z" fill="#010101"/>
<path d="M30.2114 31.1811C30.3114 31.7955 30.7762 32.1981 30.9762 32.7439C30.0467 33.4 28.7614 32.7141 28.3672 31.5718C27.9701 30.4147 28.0848 29.2187 28.2672 28.0377C28.4613 26.803 28.6849 25.5743 28.8967 24.3425C29.5967 24.0115 30.185 23.5045 30.8173 23.0661C30.9438 23.1526 31.0703 23.2361 31.1938 23.3226C31.0115 24.1069 30.8732 24.9092 30.635 25.6757C30.4703 26.2095 30.4938 26.7642 30.3291 27.2861C30.0467 27.5814 30.0702 27.9423 30.1114 28.3061C30.1173 29.2635 30.0496 30.2238 30.2114 31.1811Z" fill="#010101"/>
<path d="M30.3291 27.2861C30.0908 27.5903 30.3526 28.0019 30.1114 28.3061C30.0702 27.9423 30.0467 27.5814 30.3291 27.2861Z" fill="#1B1D20"/>
<path d="M30.8173 23.0661C30.9438 23.1526 31.0703 23.2361 31.1938 23.3226C31.1938 23.0482 31.135 22.8603 30.8173 23.0661Z" fill="#1B1D20"/>
<path d="M77.2932 0.256864C75.4725 1.03825 74.499 2.61891 73.6283 4.28009C72.7989 5.85777 72.2135 7.54281 71.6547 9.23382C71.5488 9.5589 71.4076 9.69012 71.1282 9.33224C70.7517 8.84909 70.1546 8.52699 70.084 7.82614C70.484 7.22668 70.6576 6.52582 70.9282 5.86671C71.5606 4.33675 72.3077 2.87241 73.4165 1.64367C74.2901 0.671415 75.3637 0.0242388 76.7167 0.0212565C76.9344 0.0152917 77.1785 -0.0175144 77.2932 0.256864Z" fill="#1B1D20"/>
<path d="M19.5756 0.253882C18.2638 0.772815 17.3961 1.79279 16.6578 2.94399C15.4166 4.87657 14.6577 7.02686 13.9371 9.19505C13.8312 9.51416 13.7165 9.7438 13.3841 9.31434C13.0929 8.93558 12.687 8.65225 12.4841 8.19595C12.5899 6.93739 13.1959 5.85777 13.7077 4.75131C14.3224 3.43011 15.0577 2.17751 16.1431 1.1814C16.9519 0.438789 17.902 0.0272212 19.002 0.0123093C19.2197 0.0152917 19.4609 -0.0145321 19.5756 0.253882Z" fill="#1B1D20"/>
<path d="M91.5027 14.8914C91.3969 15.2552 90.8233 15.3566 90.9762 15.8636C90.7468 16.1708 90.9939 16.5764 90.7733 16.8866C90.3968 19.6811 89.0026 21.7449 86.4907 22.9975C85.9848 23.248 85.4407 23.2092 84.9053 23.0392C85.0377 22.8245 85.2348 22.6903 85.4318 22.5382C87.2761 21.1335 88.5408 19.365 88.8144 16.9701C88.8761 16.4422 88.9497 15.8905 89.1614 15.4163C89.4203 14.8317 90.538 14.5156 91.1674 14.7453C91.2821 14.787 91.391 14.8437 91.5027 14.8914Z" fill="#1B1D20"/>
<path d="M97.1266 16.651C97.3677 16.6182 97.6089 16.5884 97.8472 16.5466C98.6884 16.4035 99.3796 17.0327 99.2767 17.8887C99.1767 18.7357 98.8796 19.5379 98.6678 20.3611C98.3972 21.4079 98.0001 22.4935 98.7884 23.5134C98.9914 23.7759 99.2149 23.9996 99.5384 24.101C99.7061 24.2978 99.5884 24.4171 99.4061 24.4201C98.9649 24.429 98.5149 24.5274 98.0884 24.3276C96.7854 23.931 96.15 22.8573 96.4353 21.4496C96.5854 20.704 96.7765 19.9614 97.0236 19.2457C97.3177 18.3778 97.353 17.5248 97.1266 16.651Z" fill="#1B1D20"/>
<path d="M34.1587 7.08054C34.0234 7.36685 33.8881 7.65018 33.7528 7.9335C33.241 8.23174 32.8851 8.75366 32.3086 8.95347C32.2939 8.96839 32.2762 8.98032 32.2615 8.98926C31.9909 9.16821 31.6762 9.02804 31.388 9.06979C31.2497 9.08768 31.1144 9.07277 31.0144 9.12944C30.985 9.14137 30.9615 9.16224 30.9409 9.18908C30.9085 9.22487 30.885 9.27259 30.8703 9.34118C30.7879 9.77959 30.6379 10.1733 30.235 10.4178C30.1438 10.5461 30.0291 10.6445 29.8643 10.6624C29.6643 10.3373 29.679 10.0122 29.8526 9.68117C30.0644 9.18013 29.9291 8.80436 29.5055 8.46138C28.9467 8.01104 28.5143 7.45036 28.376 6.71073C28.2407 6.3767 28.1731 6.04566 28.4025 5.72356C28.5466 5.2762 28.5613 4.79008 28.7966 4.36956C28.8996 4.18764 28.8614 3.83572 29.1673 3.89238C29.4584 3.94606 29.3026 4.27413 29.3643 4.47693C29.2584 4.89148 29.0849 5.30305 29.0584 5.72058C28.9996 6.67196 29.0937 7.56369 30.0585 7.97227C30.1438 8.23472 30.3614 8.35998 30.5938 8.41665C31.0732 8.52998 31.5585 8.48524 32.0439 8.42559C32.7616 8.16613 33.3322 7.75754 33.4998 6.94037C33.6792 6.45723 33.8557 5.9711 34.0322 5.48497C34.2234 5.48497 34.4146 5.48497 34.6058 5.48199C34.6764 6.07846 34.2175 6.52284 34.1587 7.08054Z" fill="#A5A5A5"/>
<path d="M51.389 22.0938C50.5301 22.9468 49.5212 23.5015 48.33 23.7013C48.1153 23.749 47.8976 23.6864 47.68 23.6983C47.5299 23.7043 47.2476 23.6387 47.4858 23.3494C49.1594 22.6963 50.4624 21.5451 51.5743 20.1583C51.9684 19.6662 52.3537 19.1622 52.6361 18.5836C52.7273 18.3987 52.8361 18.1362 53.139 18.3122C53.4185 18.4732 53.5626 18.6641 53.3861 19.016C52.939 19.9197 52.3831 20.7518 51.7743 21.548C51.636 21.727 51.4537 21.8672 51.389 22.0938Z" fill="#010101"/>
<path d="M113.76 22.0998C112.989 22.8335 112.157 23.4538 111.06 23.5761C110.798 23.7699 110.513 23.6745 110.23 23.6596C109.939 23.6447 109.936 23.5313 110.074 23.3285C112.192 22.2668 113.813 20.6772 114.995 18.6104C115.095 18.4374 115.177 18.1481 115.489 18.3092C115.783 18.4613 115.898 18.676 115.745 19.016C115.345 19.9018 114.845 20.716 114.23 21.4645C114.06 21.6644 113.842 21.8314 113.76 22.0998Z" fill="#010101"/>
<path d="M5.1484 25.3118C5.10722 25.3386 5.06898 25.3655 5.0278 25.3893C5.0278 25.3893 5.0278 25.3894 5.02486 25.3894C4.51601 25.6876 4.00422 25.6399 3.49243 25.3595C3.4689 25.3476 3.44831 25.3327 3.42478 25.3208C2.18648 25.0881 1.06289 24.0085 0.801115 22.7828C0.683462 22.2251 0.904061 21.7359 1.30408 21.4019C1.9247 20.883 2.68062 20.7428 3.47478 20.883C3.55125 20.8979 3.61303 21.0172 3.68068 21.0858C3.18359 21.2498 3.01594 21.7359 2.71886 22.0938C2.58651 22.8245 3.03653 23.4001 3.21301 24.0473C3.71597 24.3634 4.08952 24.8615 4.65426 25.0881L5.1484 25.3118Z" fill="#010101"/>
<path d="M91.4763 8.43454C90.7145 8.86699 89.9615 9.33522 89.0261 9.20101C88.8585 9.30838 88.8791 9.6096 88.6114 9.61556C88.3408 9.68416 88.1526 9.6096 88.1732 9.29943C88.1849 9.14137 88.1261 9.04593 88.0437 8.94155C86.7437 8.17507 86.1907 6.83599 86.579 5.38953C86.6496 5.13305 86.7701 4.88551 86.8172 4.62605C86.9084 4.13097 87.1731 3.91326 87.6673 3.99378C87.9908 4.08027 87.7878 4.30693 87.7643 4.45605C87.6849 4.97498 87.3466 5.41638 87.3172 5.9532C87.1849 6.87178 87.6967 7.4593 88.332 7.98122C88.4467 8.09455 88.5732 8.19297 88.7144 8.26753C89.2173 8.51507 89.7115 8.61945 90.1821 8.19297C90.4056 7.87684 90.9439 7.97824 91.0498 7.51299C91.1233 7.27738 91.2027 7.04475 91.3586 6.8509C91.4851 6.6302 91.5704 6.38565 91.6469 6.14706C91.7116 5.94724 91.7086 5.72356 91.9998 5.73847C92.5175 5.73251 92.4734 6.09338 92.441 6.44231C92.7175 7.03879 92.291 7.4772 92.0939 7.96333C91.9704 8.23174 91.7233 8.33314 91.4763 8.43454Z" fill="#A5A5A5"/>
<path d="M45.2475 25.0762C45.0828 25.2671 44.8592 25.288 44.6357 25.2701C42.9532 25.115 41.5414 24.5185 40.7796 22.8543C40.7355 22.7619 40.6767 22.6784 40.6237 22.5889C41.1061 22.3056 41.5914 22.0252 42.0679 21.733C42.4973 21.4705 42.4356 21.8851 42.4767 22.061C42.7003 23.0571 43.2209 23.8415 44.0151 24.4559C44.3915 24.7481 44.8327 24.8794 45.2475 25.0762Z" fill="#010101"/>
<path d="M17.1225 26.3228C17.0402 26.4272 16.9402 26.4809 16.8343 26.5107C16.6931 26.5495 16.5431 26.5495 16.399 26.5704C14.5606 26.4332 12.9341 25.625 11.2811 24.9122C10.7663 24.6915 10.1075 24.6676 9.79569 24.0622C10.0781 23.4985 10.534 23.7371 10.884 23.8952C12.7605 24.7392 14.6489 25.5444 16.5872 26.2274C16.7578 26.287 16.9431 26.293 17.1225 26.3228Z" fill="#010101"/>
<path d="M17.1843 26.5763C17.1431 26.633 17.0372 26.6479 16.9166 26.6539C16.7402 26.6598 16.5578 26.6867 16.399 26.5704C16.5431 26.5495 16.6931 26.5495 16.8343 26.5107C16.9402 26.4809 17.0402 26.4272 17.1225 26.3228C17.2108 26.4511 17.2225 26.5286 17.1843 26.5763Z" fill="#020202"/>
<path d="M67.5133 24.0652C67.8045 23.6297 68.2075 23.7192 68.581 23.8773C70.0193 24.4797 71.44 25.1359 72.89 25.7085C73.5195 25.959 74.1519 26.2423 74.8401 26.3228C75.0343 26.6002 74.8548 26.6479 74.6342 26.6539C74.4578 26.6598 74.2725 26.6867 74.1136 26.5704C72.59 26.4869 71.24 25.7979 69.8399 25.288C69.2546 25.0732 68.6869 24.8018 68.1222 24.5304C67.8957 24.4171 67.6133 24.3545 67.5133 24.0652Z" fill="#020202"/>
<path d="M93.5852 16.994C93.4999 16.5884 93.9087 16.2901 93.8117 15.8815C94.8176 14.8824 95.9324 14.116 97.4177 14.1428C97.656 14.1488 97.9148 14.119 98.0678 14.3754C97.0118 14.6826 96.2089 15.3954 95.4118 16.1052C94.8823 16.5764 94.397 17.1013 93.8911 17.6024C93.6823 17.7783 93.6117 17.7187 93.5734 17.4533C93.5558 17.2922 93.6264 17.1461 93.5852 16.994Z" fill="#010101"/>
<path d="M103.574 23.5582C103.833 22.9468 104.415 22.6307 104.853 22.0401C105.253 23.6178 106.212 24.5662 107.612 25.0732C107.498 25.2074 107.351 25.279 107.18 25.2641C105.762 25.1627 104.448 24.8376 103.574 23.5582Z" fill="#020202"/>
<path d="M34.4763 4.02062C34.3999 4.53061 34.194 5.00183 34.0322 5.48497C33.8557 5.9711 33.6792 6.45723 33.4998 6.94037C33.3322 7.75754 32.7616 8.16613 32.0439 8.42559C31.5585 8.48524 31.0732 8.52998 30.5938 8.41665C30.3614 8.35998 30.1438 8.23472 30.0585 7.97227C29.0937 7.56369 28.9996 6.67196 29.0584 5.72058C29.0849 5.30305 29.2584 4.89148 29.3643 4.47693C29.5084 4.33377 29.5967 4.16378 29.6026 3.95203C29.6085 3.61502 29.8261 3.58221 30.0879 3.61502C30.0614 4.26816 29.7379 4.84078 29.6026 5.46409C29.4231 5.88163 29.4143 6.29319 29.6114 6.70774C29.7761 7.09545 30.0849 7.37878 30.3438 7.70088C30.6262 7.66807 30.8173 7.90666 31.0732 7.95736C31.9586 8.02894 32.4792 7.48913 32.9292 6.82406C33.1469 6.24249 33.3939 5.66988 33.5763 5.07638C34.0969 3.39432 33.9263 2.46084 32.1498 1.89121C33.4616 1.41701 34.6911 2.54435 34.4763 4.02062Z" fill="#010101"/>
<path d="M92.0028 5.73847C91.9469 6.17092 91.8351 6.58547 91.591 6.9523C91.4821 7.05967 91.3586 7.12229 91.2262 7.01195C91.1115 6.91651 91.1557 6.8002 91.2292 6.69582C91.3321 5.9532 91.5116 5.23743 91.8469 4.56342C92.2704 3.70747 91.7969 2.71136 90.7527 2.23716C90.6586 2.13576 90.6351 2.01348 90.7556 1.93594C90.9204 1.83454 91.0939 1.87033 91.2468 1.98366C92.2263 2.24313 92.7616 3.15573 92.4969 4.16378C92.3616 4.69464 92.1704 5.21357 92.0028 5.73847Z" fill="#0C0C0C"/>
<path d="M91.9586 7.92754C92.1204 7.43246 92.2822 6.93739 92.444 6.43933C92.6557 6.30214 92.7087 6.09338 92.7204 5.85777C92.7293 5.67584 92.7204 5.43129 92.9881 5.47901C93.2175 5.52076 93.2028 5.76233 93.1705 5.93829C93.0381 6.62722 92.7675 7.26545 92.4145 7.86789C92.3528 7.97227 92.2734 8.06771 92.2057 8.16911C92.1381 8.24367 92.0586 8.29139 91.9675 8.22279C91.8557 8.1363 91.8939 8.02894 91.9586 7.92754Z" fill="#131313"/>
<path d="M87.0702 5.96215C87.2702 5.30603 87.4702 4.64991 87.6702 3.99676C88.0879 3.60011 87.9937 4.07132 88.0761 4.24132C87.9055 4.81394 87.7349 5.38953 87.5643 5.96215C87.3996 6.13513 87.2349 6.28127 87.0702 5.96215Z" fill="#050505"/>
<path d="M35.0676 5.88461C34.8881 6.40951 34.6822 6.92546 34.4881 7.44439C34.3028 7.69789 34.2705 8.187 33.7528 7.9335C33.8881 7.65018 34.0234 7.36685 34.1587 7.08054C34.2175 6.52284 34.6764 6.07846 34.6058 5.48199C34.6969 5.35375 34.8087 5.26129 34.9617 5.37462C35.1352 5.50883 35.1293 5.70865 35.0676 5.88461Z" fill="#010101"/>
<path d="M88.0437 8.94453C88.2643 9.0847 88.382 9.35311 88.6496 9.43662C89.0585 9.7617 88.8408 9.97047 88.5232 10.1643C88.2585 10.2836 88.3026 10.889 87.9143 10.7011C87.4672 10.4834 87.8614 10.0987 87.9084 9.78854C87.9555 9.50522 87.9996 9.22487 88.0437 8.94453Z" fill="#9C9C9C"/>
<path d="M89.0703 23.7968C89.0555 23.8832 89.0379 23.9697 89.0232 24.0532C88.6967 24.0652 88.3702 24.0741 88.0437 24.0861C87.8496 24.0652 87.6584 24.0413 87.5731 23.8206C87.682 23.7311 87.7908 23.6417 87.9026 23.5552C88.5408 23.072 88.6114 23.087 89.0703 23.7968Z" fill="#020202"/>
<path d="M30.235 10.4178C30.3526 10.0092 30.4673 9.59767 30.585 9.18908C30.7467 9.05488 30.9115 8.99523 31.0732 9.18908C31.0879 10.1613 30.9585 10.3522 30.235 10.4178Z" fill="#181818"/>
<path d="M88.5232 10.1613C88.5644 9.91977 88.6085 9.67521 88.6497 9.43364C88.6879 9.20996 88.8438 9.18312 89.0261 9.20101C89.2879 9.60065 89.182 9.9645 88.9055 10.2985C88.6761 10.5819 88.5908 10.382 88.5232 10.1613Z" fill="#141414"/>
<path d="M110.074 23.3285C110.348 23.6357 110.724 23.5224 111.06 23.5761C110.533 23.9817 109.924 23.7729 109.348 23.8057C109.486 23.4866 109.739 23.3405 110.074 23.3285Z" fill="#191919"/>
<path d="M98.0854 24.3246C98.5678 24.2441 99.1002 24.4857 99.5384 24.098C99.6708 24.1069 99.7532 24.1875 99.8061 24.3038C99.2355 24.6974 98.6619 24.6736 98.0854 24.3246Z" fill="#3E3E3E"/>
<path d="M20.7992 23.8117C20.4198 23.8147 20.0315 23.9489 19.6727 23.7133C19.9109 23.6178 20.1492 23.5194 20.3874 23.424C20.7962 23.254 20.8992 23.421 20.7992 23.8117Z" fill="#080808"/>
<path d="M31.0762 9.18908C30.9144 9.18908 30.7497 9.18908 30.5879 9.18908C31.1115 8.74471 31.735 9.02804 32.3086 8.95347C31.9439 9.29347 31.4968 9.16821 31.0762 9.18908Z" fill="#7C7C7C"/>
<path d="M78.5168 23.8117C78.1374 23.8147 77.7491 23.9459 77.3903 23.7133C77.6285 23.6178 77.8668 23.5224 78.105 23.4269C78.5138 23.257 78.6139 23.424 78.5168 23.8117Z" fill="#080808"/>
<path d="M74.1136 26.5674C74.3695 26.5316 74.6519 26.5644 74.8401 26.3199C75.0049 26.3586 75.1696 26.3974 75.3372 26.4391C74.9784 26.973 74.5548 26.8388 74.1136 26.5674Z" fill="#3D3D3D"/>
<path d="M17.6196 26.4391C17.2637 26.973 16.8372 26.8418 16.399 26.5704C16.5431 26.5495 16.6931 26.5495 16.8343 26.5107C16.9402 26.4809 17.0402 26.4272 17.1225 26.3228C17.2872 26.3616 17.4549 26.4004 17.6196 26.4391Z" fill="#3E3E3E"/>
<path d="M47.4829 23.3494C47.7064 23.6089 48.0564 23.5612 48.327 23.7013C47.8917 23.928 47.427 23.7819 46.977 23.8057C47.0593 23.5552 47.2505 23.4299 47.4829 23.3494Z" fill="#1D1D1D"/>
<path d="M37.2029 24.3246C37.2 23.8922 37.1059 23.4419 37.4177 23.0661C37.4265 23.4985 37.5206 23.9489 37.2029 24.3246Z" fill="#838383"/>
<path d="M91.2498 1.98068C91.0586 2.0105 90.8762 2.0612 90.7527 2.23418C90.6733 2.2312 90.5909 2.2312 90.5115 2.22822C90.488 2.08506 90.3291 1.90612 90.5439 1.8077C90.8056 1.69139 91.0468 1.78384 91.2498 1.98068Z" fill="#2F2F2F"/>
<path d="M91.9586 7.92754C92.041 8.00806 92.1234 8.09157 92.2057 8.17209C92.0116 8.39875 91.8322 8.67015 91.4763 8.43454C91.5704 8.20192 91.7204 8.01999 91.9586 7.92754Z" fill="#3B3B3B"/>
<path d="M29.3673 12.6546C29.0378 12.6516 28.7113 12.6486 28.3819 12.6457C28.7113 12.3444 29.0408 12.3474 29.3673 12.6546Z" fill="#767676"/>
<path d="M26.423 12.6457L27.4113 12.6546C27.0848 12.3504 26.7554 12.3474 26.423 12.6457Z" fill="#363636"/>
<path d="M29.8496 9.68118C29.8555 10.0063 29.8585 10.3343 29.8643 10.6594C29.4761 10.3403 29.5732 10.0122 29.8496 9.68118Z" fill="#848484"/>
<path d="M12.4664 4.70955C12.3635 4.51868 12.1752 4.49184 11.9899 4.45903C12.1635 4.30097 12.3546 4.15781 12.5664 4.36061C12.7047 4.49184 12.5841 4.6171 12.4664 4.70955Z" fill="#7A7A7A"/>
<path d="M10.5104 4.70955C10.4075 4.51868 10.2192 4.49184 10.0369 4.45903C10.2075 4.30097 10.4016 4.15781 10.6104 4.36061C10.7487 4.49184 10.6281 4.6171 10.5104 4.70955Z" fill="#323232"/>
<path d="M39.1442 22.5919C39.4736 22.5949 39.8031 22.6008 40.1325 22.6038C39.7972 22.8901 39.4678 22.8782 39.1442 22.5919Z" fill="#6F6F6F"/>
<path d="M70.187 4.70955C70.084 4.51868 69.8958 4.49184 69.7105 4.45903C69.884 4.30395 70.0781 4.15483 70.2899 4.36062C70.4252 4.49184 70.3046 4.6171 70.187 4.70955Z" fill="#7A7A7A"/>
<path d="M28.4025 5.72356C28.3937 6.05162 28.3849 6.37968 28.376 6.71073C28.0878 6.37074 28.076 6.04268 28.4025 5.72356Z" fill="#696969"/>
<path d="M87.0849 12.6516C86.7554 12.6486 86.426 12.6486 86.0995 12.6457C86.429 12.3474 86.7584 12.3474 87.0849 12.6516Z" fill="#767676"/>
<path d="M89.9997 24.0861C90.3262 24.0741 90.6527 24.0652 90.9792 24.0532C90.6645 24.4231 90.335 24.3664 89.9997 24.0861Z" fill="#878787"/>
<path d="M26.4406 21.1067C26.423 20.7488 26.3789 20.3879 26.6612 20.0956C26.6671 20.4505 26.6965 20.8114 26.4406 21.1067Z" fill="#939393"/>
<path d="M85.1289 12.6516C84.7995 12.6486 84.47 12.6486 84.1435 12.6457C84.473 12.3474 84.7995 12.3474 85.1289 12.6516Z" fill="#363636"/>
<path d="M68.228 4.70955C68.1251 4.51868 67.9369 4.49184 67.7515 4.45903C67.9251 4.30395 68.1192 4.15781 68.328 4.36061C68.4663 4.49184 68.3486 4.6171 68.228 4.70955Z" fill="#313131"/>
<path d="M35.797 22.3384C35.5587 22.577 35.7735 23.081 35.7058 23.4598C35.5264 24.4857 35.3617 25.5116 35.0705 26.5137C34.7381 27.647 34.4528 28.7893 33.8616 29.8271C33.6792 30.1492 33.4704 30.4445 33.2645 30.7457C32.9086 30.9843 32.7439 30.8829 32.641 30.4624C32.5086 29.9136 32.5968 29.3649 32.5615 28.8161C32.8527 28.5328 32.8939 28.163 32.9086 27.7872C32.9674 27.7037 33.0498 27.6291 33.0792 27.5367C33.4763 26.2841 33.8175 25.0195 33.991 23.7133C34.0351 23.3762 34.1028 23.0184 33.9175 22.6873C34.1587 21.396 34.5999 20.1612 34.9911 18.9146C35.0205 18.8162 35.0411 18.676 35.1587 18.7029C35.2646 18.7297 35.3999 18.8222 35.4352 18.9176C35.6617 19.5409 36.0352 20.1225 35.9911 20.8233C36.0558 21.3423 36.2911 21.8373 35.797 22.3384Z" fill="#010101"/>
<path d="M43.565 3.7194C43.3415 4.33079 43.0738 4.93323 42.7032 5.47602C42.0767 6.73757 41.2237 7.84403 40.3149 8.89979C39.7148 9.60065 39.1707 10.3701 38.4207 10.9308C38.3236 11.0053 38.2206 11.0382 38.1295 10.9248C38.0618 10.8354 38.1059 10.7489 38.1648 10.6713C38.9295 8.63436 40.0031 6.76441 41.1737 4.94814C41.6855 4.14887 42.1679 3.31976 43.0503 2.86346C43.2091 2.77995 43.3738 2.7054 43.5356 2.62785C43.8533 2.98276 43.6915 3.37941 43.565 3.7194Z" fill="#010101"/>
<path d="M51.386 14.3993C51.1448 15.5714 50.4036 16.4005 49.5418 17.155C48.4976 18.0676 47.3182 18.7237 46.0005 19.1234C45.4945 19.2964 45.4357 19.2636 45.5004 18.858C45.6328 18.6164 45.7651 18.3778 45.9004 18.1362C46.0828 18.1422 46.2622 18.1213 46.424 18.0199C47.3593 17.4324 48.1859 16.7047 48.83 15.807C49.23 15.2523 49.5624 14.623 49.5212 13.8833C49.9212 13.3525 50.5801 13.1825 51.3507 13.4151C51.5949 13.7342 51.5184 14.0653 51.386 14.3993Z" fill="#010101"/>
<path d="M36.1853 21.9268C35.9176 23.1317 35.9382 24.3753 35.6029 25.5683C35.1764 27.0893 34.794 28.6222 34.0293 30.018C33.8528 30.3371 33.6763 30.6741 33.2645 30.7457C33.4704 30.4445 33.6792 30.1492 33.8616 29.8271C34.4528 28.7893 34.7381 27.647 35.0705 26.5137C35.3617 25.5116 35.5264 24.4857 35.7058 23.4598C35.7735 23.081 35.5587 22.577 35.797 22.3384C36.2911 21.8373 36.0558 21.3423 35.9911 20.8233C36.3294 21.1424 36.2617 21.5719 36.1853 21.9268Z" fill="#555555"/>
<path d="M43.8856 3.14082C43.6915 4.02062 43.4297 4.8706 42.7032 5.47602C43.0738 4.93323 43.3415 4.33079 43.565 3.7194C43.6915 3.37941 43.8533 2.98276 43.5356 2.62785C43.7562 2.72925 43.9415 2.89329 43.8856 3.14082Z" fill="#595959"/>
<path d="M38.4207 10.9308C38.3501 11.1813 38.1177 11.4587 37.953 11.3185C37.75 11.1485 37.9442 10.8443 38.1648 10.6713C38.1059 10.7489 38.0618 10.8354 38.1295 10.9248C38.2206 11.0382 38.3236 11.0053 38.4207 10.9308Z" fill="#3F3F3F"/>
<path d="M31.1938 23.3226C31.0703 23.2361 30.9438 23.1526 30.8173 23.0661C30.8556 22.8006 31.0615 22.7052 31.3027 22.5412C31.3262 22.8603 31.388 23.1048 31.1938 23.3226Z" fill="#1C1C1C"/>
<path d="M51.386 14.3963C51.3743 14.0683 51.3625 13.7432 51.3478 13.4151C51.689 13.7312 51.6831 14.0593 51.386 14.3963Z" fill="#909090"/>
<path d="M45.4975 18.8579C45.5387 19.189 45.8093 19.0757 45.9975 19.1234C45.8505 19.2725 45.6828 19.4097 45.474 19.2665C45.2887 19.1383 45.3798 18.9862 45.4975 18.8579Z" fill="#878787"/>
<path d="M30.3291 27.2861C30.0467 27.5814 30.0702 27.9423 30.1114 28.3061C30.382 28.0079 30.3408 27.644 30.3291 27.2861Z" fill="#242424"/>
<path d="M112.769 16.3289C111.542 17.665 110.101 18.6522 108.342 19.1234C108.192 19.1621 108.027 19.3142 107.912 19.1264C107.824 18.9862 107.889 18.8132 107.992 18.6671C108.121 18.4881 108.233 18.2943 108.354 18.1094C108.518 18.1302 108.677 18.1064 108.818 18.0139C109.936 17.2922 110.892 16.4005 111.574 15.2373C111.818 14.8258 111.901 14.3635 111.886 13.8833C112.06 13.5165 112.392 13.4241 112.748 13.3823C113.077 13.2511 113.404 13.1855 113.716 13.43C113.904 14.5663 113.519 15.5117 112.769 16.3289Z" fill="#010101"/>
<path d="M102.256 22.8394C102.474 22.4636 102.671 22.0431 103.227 22.3324C102.974 22.6456 102.653 22.8185 102.256 22.8394Z" fill="#4E4E4E"/>
<path d="M93.5852 16.994C93.7176 17.1819 93.6793 17.4592 93.897 17.6024C93.8175 17.7604 93.7381 17.9155 93.6587 18.0736C93.5969 18.175 93.5205 18.2197 93.4175 18.1302C93.3175 18.0408 93.3646 17.9483 93.4175 17.8589C93.4322 17.5606 93.4146 17.2594 93.5852 16.994Z" fill="#373737"/>
<path d="M90.7733 16.8866C90.7527 16.5287 90.7145 16.1649 90.9762 15.8636C91.0115 16.2275 91.0821 16.5973 90.7733 16.8866Z" fill="#686868"/>
<path d="M93.4175 17.8589C93.4969 17.9304 93.5764 18.002 93.6587 18.0736C93.5793 18.2227 93.5205 18.503 93.3146 18.3599C93.1028 18.2167 93.2734 18.008 93.4175 17.8589Z" fill="#838383"/>
<path d="M113.716 13.43C113.392 13.4151 113.071 13.3972 112.748 13.3823C113.086 13.0453 113.41 13.0632 113.716 13.43Z" fill="#666666"/>
<path d="M80.0139 3.24222C79.5816 5.88461 78.3668 8.02297 76.1049 9.4903C75.6725 9.77363 75.2049 9.91678 74.7137 10.0122C74.5166 10.048 74.2901 10.1434 74.1636 9.93468C74.0607 9.7617 74.1725 9.58276 74.3019 9.43364C74.3489 9.37697 74.3607 9.28452 74.3872 9.20698C74.6607 9.21891 74.849 9.04891 75.0225 8.8819C77.055 6.94335 78.2756 4.65289 78.005 1.72718C78.0344 1.57209 78.1315 1.5035 78.2815 1.5035C78.6903 1.29175 79.0992 1.30666 79.508 1.49455C79.8639 1.61385 79.9728 1.90015 80.008 2.24014C80.1845 2.57417 80.1345 2.9082 80.0139 3.24222Z" fill="#1B1D20"/>
<path d="M65.6956 23.5254C65.0367 24.1218 64.269 24.4201 63.3719 24.2978C63.1278 23.9399 63.4219 23.7968 63.6278 23.6089C64.1955 23.1019 64.172 22.9557 63.4719 22.6664C63.3601 22.6217 63.2366 22.6008 63.1219 22.571C63.0513 22.571 62.9807 22.565 62.9189 22.5471C62.6778 22.5024 62.4954 22.3593 62.3895 22.0968C62.8895 22.1356 63.4278 21.9119 63.8749 22.3175C64.5014 22.2787 65.0455 22.5561 65.6044 22.7768C66.0603 22.9587 65.9868 23.2599 65.6956 23.5254Z" fill="#010101"/>
<path d="M79.508 1.49455C79.0992 1.49753 78.6903 1.50052 78.2815 1.50052C78.6874 1.17544 79.0962 1.07105 79.508 1.49455Z" fill="#2C2C2C"/>
<path d="M60.6688 21.8344C60.663 22.2519 60.6541 22.6724 60.6483 23.0899C60.4306 22.8305 60.6306 22.4756 60.4982 22.1952C60.5453 22.1028 60.5453 21.9894 60.6012 21.9059C60.6247 21.8821 60.6453 21.8582 60.6688 21.8344Z" fill="#828282"/>
<path d="M80.011 3.24222C80.008 2.9082 80.0081 2.57417 80.0051 2.23716C80.2934 2.57119 80.3022 2.90521 80.011 3.24222Z" fill="#868686"/>
<path d="M22.2904 3.24222C21.8463 5.87566 20.6462 8.02297 18.3814 9.49329C17.949 9.77363 17.4784 9.91082 16.9872 10.0152C16.8049 10.057 16.5872 10.1226 16.4696 9.97941C16.3254 9.80047 16.4313 9.59767 16.5754 9.43066C16.6254 9.37101 16.6402 9.28153 16.6696 9.20697C16.9608 9.20996 17.1549 9.0161 17.3461 8.84014C18.9873 7.32808 19.9962 5.46708 20.3345 3.23924C20.3345 2.90521 20.3315 2.57417 20.3315 2.24313C20.3168 2.07015 20.2992 1.89717 20.2845 1.72419C21.0845 0.936846 22.0169 1.17842 22.2875 2.24014C22.4669 2.57417 22.4169 2.9082 22.2904 3.24222Z" fill="#1B1D20"/>
<path d="M20.3315 2.24313C20.3315 2.57417 20.3345 2.90521 20.3345 3.23924C20.4609 2.90521 20.5109 2.57417 20.3315 2.24313Z" fill="#565656"/>
<path d="M7.97501 23.5224C7.31616 24.1159 6.55435 24.4231 5.65431 24.2978C5.52783 24.0771 5.519 23.9041 5.76019 23.7252C5.99256 23.5522 6.37199 23.3673 6.27492 23.0422C6.16904 22.6933 5.74255 22.6664 5.41312 22.5829C5.3337 22.565 5.25429 22.5591 5.17487 22.5471C5.10134 22.5263 5.03369 22.4994 4.97192 22.4636C4.83368 22.3861 4.72779 22.2668 4.6719 22.0968C5.17193 22.1356 5.71019 21.9149 6.15433 22.3175C6.78083 22.2817 7.32498 22.5591 7.88383 22.7798C8.34268 22.9587 8.27209 23.2569 7.97501 23.5224Z" fill="#010101"/>
<path d="M22.2904 3.24222C22.2904 2.9082 22.2875 2.57417 22.2875 2.24313C22.5758 2.57417 22.5787 2.90521 22.2904 3.24222Z" fill="#8C8C8C"/>
<path d="M29.6114 6.70774C29.4143 6.29319 29.4231 5.88163 29.6026 5.46409C29.6055 5.87864 29.6084 6.29319 29.6114 6.70774Z" fill="#3C3C3C"/>
<path d="M87.0702 5.96215C87.2349 5.96215 87.3996 5.96215 87.5643 5.96215C87.4908 6.82704 87.9938 7.39369 88.5585 7.92754C88.6232 8.01105 88.6614 8.1035 88.5879 8.19893C88.4908 8.32121 88.3791 8.27349 88.2673 8.21385C87.479 7.87982 86.879 6.75248 87.0702 5.96215Z" fill="#181818"/>
<path d="M91.2204 7.56369C91.088 8.07069 90.8056 8.40472 90.2556 8.43753C89.9644 8.27349 89.6732 8.55384 89.3791 8.43454C89.2173 8.41068 89.0526 8.4077 88.8967 8.36297C88.6467 8.29139 88.6408 8.13929 88.7908 7.9514C89.5556 8.10648 90.1968 7.73965 90.8557 7.44141C91.0057 7.39667 91.1527 7.35492 91.2204 7.56369Z" fill="#5F5F5F"/>
<path d="M91.2204 7.56369C91.0998 7.52193 90.9763 7.48316 90.8557 7.44141C90.9086 7.1551 91.0057 6.89265 91.2321 6.69582C91.3204 6.82704 91.438 6.91651 91.591 6.95528C91.6028 7.23861 91.3086 7.33703 91.2204 7.56369Z" fill="#282828"/>
<path d="M88.7908 7.9514C88.9644 8.19595 89.232 8.20192 89.4909 8.22876C89.6409 8.39577 89.6026 8.5091 89.385 8.53296C89.0997 8.56577 88.8055 8.64927 88.5438 8.44647C88.4055 8.42559 88.3114 8.34805 88.2673 8.21385C88.3644 8.11841 88.4614 8.02297 88.5555 7.92754C88.6349 7.9335 88.7144 7.94245 88.7908 7.9514Z" fill="#242424"/>
<path d="M88.5438 8.44647C88.8703 8.41963 89.2232 8.5091 89.4909 8.22876C89.7703 8.2049 90.0438 8.19894 90.2556 8.43753C89.688 8.75962 89.1173 8.87593 88.5438 8.44647Z" fill="#404040"/>
<path d="M20.3315 2.24313C20.3315 2.57417 20.3345 2.90521 20.3345 3.23924C20.6139 2.90521 20.6139 2.57417 20.3315 2.24313Z" fill="#101010"/>
</svg>
