<svg width="66" height="66" viewBox="0 0 66 66" fill="none" xmlns="http://www.w3.org/2000/svg">
<rect x="5" y="5" width="56" height="56" rx="28" fill="#D1FADF"/>
<path d="M44.6673 31.9267V33C44.6659 35.5158 43.8512 37.9638 42.3449 39.9788C40.8385 41.9938 38.7211 43.4679 36.3086 44.1812C33.896 44.8945 31.3175 44.8089 28.9575 43.937C26.5976 43.0652 24.5827 41.4538 23.2134 39.3433C21.8441 37.2327 21.1937 34.7361 21.3593 32.2257C21.5248 29.7153 22.4974 27.3257 24.132 25.4133C25.7666 23.5008 27.9756 22.168 30.4295 21.6135C32.8835 21.0591 35.451 21.3127 37.749 22.3367M44.6673 23.6667L33.0007 35.345L29.5007 31.845" stroke="#039855" stroke-width="2.33333" stroke-linecap="round" stroke-linejoin="round"/>
<rect x="5" y="5" width="56" height="56" rx="28" stroke="#ECFDF3" stroke-width="10"/>
</svg>
