<svg width="66" height="66" viewBox="0 0 66 66" fill="none" xmlns="http://www.w3.org/2000/svg">
<rect x="5" y="5" width="56" height="56" rx="28" fill="#EBEFFF"/>
<path d="M37.0827 27.7499L41.166 23.6666M43.4993 21.3333L41.166 23.6666L43.4993 21.3333ZM32.2877 32.5449C32.8901 33.1393 33.3689 33.847 33.6967 34.6272C34.0245 35.4074 34.1947 36.2447 34.1975 37.091C34.2004 37.9373 34.0358 38.7757 33.7132 39.5581C33.3907 40.3405 32.9166 41.0514 32.3182 41.6498C31.7198 42.2482 31.0089 42.7223 30.2265 43.0448C29.4441 43.3674 28.6057 43.532 27.7594 43.5291C26.9132 43.5263 26.0758 43.3561 25.2956 43.0283C24.5154 42.7005 23.8077 42.2216 23.2133 41.6193C22.0445 40.4091 21.3977 38.7882 21.4124 37.1058C21.427 35.4233 22.1018 33.814 23.2915 32.6242C24.4812 31.4345 26.0906 30.7597 27.773 30.7451C29.4554 30.7305 31.0763 31.3772 32.2865 32.5461L32.2877 32.5449ZM32.2877 32.5449L37.0827 27.7499L32.2877 32.5449ZM37.0827 27.7499L40.5827 31.2499L44.666 27.1666L41.166 23.6666L37.0827 27.7499Z" stroke="#5684D9" stroke-width="2.33333" stroke-linecap="round" stroke-linejoin="round"/>
<rect x="5" y="5" width="56" height="56" rx="28" stroke="#F5F8FF" stroke-width="10"/>
</svg>
