<svg width="28" height="20" viewBox="0 0 28 20" fill="none" xmlns="http://www.w3.org/2000/svg">
<path d="M21.5 18.125C21.0027 18.125 20.5258 17.9275 20.1742 17.5758C19.8225 17.2242 19.625 16.7473 19.625 16.25C19.625 15.7527 19.8225 15.2758 20.1742 14.9242C20.5258 14.5725 21.0027 14.375 21.5 14.375C21.9973 14.375 22.4742 14.5725 22.8258 14.9242C23.1775 15.2758 23.375 15.7527 23.375 16.25C23.375 16.7473 23.1775 17.2242 22.8258 17.5758C22.4742 17.9275 21.9973 18.125 21.5 18.125ZM23.375 6.875L25.825 10H20.25V6.875H23.375ZM6.5 18.125C6.00272 18.125 5.52581 17.9275 5.17417 17.5758C4.82254 17.2242 4.625 16.7473 4.625 16.25C4.625 15.7527 4.82254 15.2758 5.17417 14.9242C5.52581 14.5725 6.00272 14.375 6.5 14.375C6.99728 14.375 7.47419 14.5725 7.82583 14.9242C8.17746 15.2758 8.375 15.7527 8.375 16.25C8.375 16.7473 8.17746 17.2242 7.82583 17.5758C7.47419 17.9275 6.99728 18.125 6.5 18.125ZM24 5H20.25V0H2.75C1.3625 0 0.25 1.1125 0.25 2.5V16.25H2.75C2.75 17.2446 3.14509 18.1984 3.84835 18.9017C4.55161 19.6049 5.50544 20 6.5 20C7.49456 20 8.44839 19.6049 9.15165 18.9017C9.85491 18.1984 10.25 17.2446 10.25 16.25H17.75C17.75 17.2446 18.1451 18.1984 18.8483 18.9017C19.5516 19.6049 20.5054 20 21.5 20C22.4946 20 23.4484 19.6049 24.1517 18.9017C24.8549 18.1984 25.25 17.2446 25.25 16.25H27.75V10L24 5Z" fill="#094977"/>
</svg>
