<svg width="26" height="24" viewBox="0 0 26 24" fill="none" xmlns="http://www.w3.org/2000/svg">
<path d="M13 0.75C6.125 0.75 0.5 5.25 0.5 10.75C0.5 13.375 1.75 15.875 4 17.625C4 18.375 3.5 20.375 0.5 23.25C0.5 23.25 4.875 23.25 8.625 20.125C10 20.5 11.5 20.75 13 20.75C19.875 20.75 25.5 16.25 25.5 10.75C25.5 5.25 19.875 0.75 13 0.75ZM14.25 15.75H11.75V13.25H14.25V15.75ZM16.5 9.5C16.125 10 15.625 10.25 15.125 10.5C14.75 10.75 14.625 10.875 14.5 11.125C14.25 11.375 14.25 11.625 14.25 12H11.75C11.75 11.375 11.875 11 12.125 10.625C12.375 10.375 12.875 10 13.5 9.625C13.875 9.5 14.125 9.25 14.25 9C14.375 8.75 14.5 8.375 14.5 8.125C14.5 7.75 14.375 7.5 14.125 7.25C13.875 7 13.5 6.875 13.125 6.875C12.75 6.875 12.5 7 12.25 7.125C12 7.25 11.875 7.5 11.875 7.875H9.375C9.5 7 9.875 6.25 10.5 5.75C11.125 5.25 12 5.125 13.125 5.125C14.25 5.125 15.25 5.375 15.875 5.875C16.5 6.375 16.875 7.125 16.875 8C17 8.5 16.875 9 16.5 9.5Z" fill="#094977"/>
</svg>
