<svg width="24" height="20" viewBox="0 0 24 20" fill="none" xmlns="http://www.w3.org/2000/svg">
<path d="M24 2.55887C23.1013 2.95701 22.148 3.21834 21.1719 3.33419C22.1887 2.72481 22.9693 1.75984 23.3369 0.610094C22.3704 1.18364 21.3129 1.58774 20.2103 1.80494C19.312 0.848031 18.0324 0.25 16.6162 0.25C13.8968 0.25 11.6921 2.45462 11.6921 5.17375C11.6921 5.55972 11.7357 5.93547 11.8196 6.29594C7.72744 6.09053 4.09931 4.13031 1.67072 1.15131C1.24697 1.87853 1.00416 2.72444 1.00416 3.62669C1.00416 5.335 1.8735 6.84203 3.19462 7.72506C2.4127 7.70057 1.64798 7.48938 0.964313 7.10912C0.964031 7.12975 0.964031 7.15037 0.964031 7.17109C0.964031 9.55675 2.66128 11.5469 4.91372 11.9992C4.18864 12.1964 3.42809 12.2253 2.69016 12.0836C3.31669 14.0398 5.13516 15.4633 7.28972 15.5031C5.60456 16.8237 3.48141 17.6109 1.17459 17.6109C0.777094 17.6109 0.385219 17.5876 0 17.5421C2.17903 18.9392 4.76719 19.7543 7.54781 19.7543C16.6047 19.7543 21.5573 12.2514 21.5573 5.74478C21.5573 5.53122 21.5526 5.31887 21.543 5.10775C22.507 4.41089 23.339 3.54776 24 2.55887Z" fill="#55ACEE"/>
</svg>
